<svg width="584" height="1072" xmlns="http://www.w3.org/2000/svg" xmlns:xlink="http://www.w3.org/1999/xlink" xml:space="preserve" overflow="hidden"><defs><clipPath id="clip0"><rect x="1358" y="537" width="584" height="1072"/></clipPath></defs><g clip-path="url(#clip0)" transform="translate(-1358 -537)"><path d="M1806.53 537 1404.02 769.572 1431.49 784.983 1834 552.428 1806.53 537Z" fill="#EDAB37" fill-rule="evenodd"/><path d="M1834 552.017 1431.02 784.362 1431.02 1521 1834 1288.22 1834 552.017Z" fill="#DD702D" fill-rule="evenodd"/><path d="M1403.66 769.018 1385.02 779.969 1411.94 796 1431 784.607 1403.66 769.018Z" fill="#EDAB37" fill-rule="evenodd"/><path d="M1431 785 1412.02 796.244 1412.02 1531.98 1431 1521.17 1431 785Z" fill="#DD702D" fill-rule="evenodd"/><path d="M1412 796.018 1385.02 811.419 1385.02 1547 1412 1531.6 1412 796.018Z" fill="#DD702D" fill-rule="evenodd"/><path d="M1385.01 780 1358.02 795.707 1385.01 811 1412 795.707 1385.01 780Z" fill="#EDAB37" fill-rule="evenodd"/><path d="M1820.26 598.018 1385.66 850.133C1385.66 850.133 1379 914 1493.37 914L1917.98 653.94C1809.02 641.003 1820.26 598.018 1820.26 598.018Z" fill="#FFFFFF" fill-rule="evenodd"/><path d="M1914.53 598.018 1512.02 831.116 1539.07 847 1942 613.464 1914.53 598.018Z" fill="#EDAB37" fill-rule="evenodd"/><path d="M1942 614 1539.02 846.539 1539.02 1581.98 1942 1349.46 1942 614Z" fill="#DD702D" fill-rule="evenodd"/><path d="M1512.02 831 1512.02 1566.19 1539 1581.98 1539 846.81 1512.02 831Z" fill="#914D27" fill-rule="evenodd"/><path d="M1875 812 1606 966.884 1606 1041 1875 886.116 1875 812Z" fill="#FCBB3B" fill-rule="evenodd"/><path d="M1816.92 988C1816.31 988 1815.66 988.208 1815 988.643L1665 1075.05C1662.49 1076.72 1660 1080.87 1660 1084.6 1660 1087.37 1661.36 1088.98 1663.07 1088.98 1663.68 1088.98 1664.34 1088.77 1665 1088.34L1815 1001.93C1817.49 1000.28 1820 996.131 1820 992.378 1820 989.633 1818.64 988 1816.92 988Z" fill="#FCBB3B" fill-rule="evenodd"/><path d="M1771.13 1059.02C1770.51 1059.02 1769.8 1059.23 1769.04 1059.66L1711.98 1093C1709.08 1094.67 1707.02 1098.84 1707.02 1102.59 1707.02 1105.36 1708.14 1106.98 1709.89 1106.98 1710.51 1106.98 1711.22 1106.79 1711.98 1106.34L1769.04 1073C1771.92 1071.33 1774 1067.16 1774 1063.41 1774 1060.64 1772.88 1059.02 1771.13 1059.02Z" fill="#FCBB3B" fill-rule="evenodd"/><path d="M1511.66 831 1493.02 842.024 1505.86 851 1526.98 839.566 1511.66 831Z" fill="#EDAB37" fill-rule="evenodd"/><path d="M1526.98 839 1507.02 850.257 1507.85 1585.98 1526.98 1575.16 1526.98 839Z" fill="#DD702D" fill-rule="evenodd"/><path d="M1520 857 1493.02 872.831 1493.02 1608.98 1520 1593.17 1520 857Z" fill="#EDAB37" fill-rule="evenodd"/><path d="M1493.21 842.017 1466 857.293 1493.21 873 1520 857.293 1493.21 842.017Z" fill="#EDAB37" fill-rule="evenodd"/><path d="M1358.02 796.018 1358.02 1531.59C1358.02 1531.59 1359.25 1563.63 1403.85 1585.68 1448.42 1608.15 1493 1608.98 1493 1608.98L1493 873.406 1465.5 857.587C1459.09 858.788 1453.16 859.327 1447.71 859.327 1396.32 859.327 1385.1 811.419 1385.1 811.419L1358.02 796.018Z" fill="#DD702D" fill-rule="evenodd"/><path d="M1403.71 1457.02C1389.83 1457.02 1377.96 1465.76 1373.67 1481.14 1367.02 1503.63 1379.09 1531.95 1400.33 1544.44 1406.94 1548.21 1413.66 1549.98 1419.97 1549.98 1434 1549.98 1446.02 1541.22 1450.33 1525.72 1457 1503.23 1444.92 1474.91 1423.67 1462.82 1416.96 1458.88 1410.11 1457.02 1403.71 1457.02Z" fill="#FCBB3B" fill-rule="evenodd"/><path d="M1358.02 796.018 1358.02 801.837C1358.44 817.193 1365.93 859.563 1421.76 881.989 1432.69 886.35 1442.62 887.983 1451.35 887.983 1477.53 887.983 1493 873.269 1493 873.269L1465.5 857.478C1459.25 858.607 1453.46 859.128 1448.09 859.128 1396.39 859.128 1385.1 811.391 1385.1 811.391L1358.02 796.018Z" fill="#EDAB37" fill-rule="evenodd"/></g></svg>