<svg xmlns="http://www.w3.org/2000/svg" xmlns:xlink="http://www.w3.org/1999/xlink" viewBox="0 0 802.68 186.6"><defs><style>.cls-1,.cls-2,.cls-3,.cls-5{isolation:isolate;}.cls-2,.cls-3{font-size:51.93px;font-family:MicrosoftYaHei, Microsoft YaHei;}.cls-2,.cls-3,.cls-4,.cls-5{fill:#588a29;}.cls-2{letter-spacing:0.1em;}.cls-4,.cls-5{font-size:29.62px;font-family:ArialMT, Arial;}.cls-4{letter-spacing:0.07em;}.cls-5{letter-spacing:0.07em;}.cls-6{letter-spacing:0.01em;}.cls-7{fill-rule:evenodd;fill:url(#未命名的渐变_3);}</style><radialGradient id="未命名的渐变_3" cx="68.25" cy="-790.72" r="56.63" gradientTransform="matrix(1, 0, 0, -1, 0, -736.61)" gradientUnits="userSpaceOnUse"><stop offset="0" stop-color="#c4d700"/><stop offset="1" stop-color="#669f31"/></radialGradient></defs><g id="图层_2" data-name="图层 2"><g id="图层_1-2" data-name="图层 1"><g class="cls-1"><text class="cls-2" transform="translate(177.15 95.4)">上</text><text class="cls-2" transform="translate(234.55 95.4)">海春禾青少年发展中</text><text class="cls-3" transform="translate(750.75 95.4)">心</text></g><g class="cls-1"><text class="cls-4" transform="translate(274.45 113.96)">.</text><text class="cls-5" transform="translate(180.05 139.38)">ww<tspan class="cls-6" x="46.76" y="0">w</tspan><tspan x="68.5" y="0">.spring.org.cn</tspan></text><text class="cls-1"/><text class="cls-1"/><text class="cls-1"/><text class="cls-1"/></g><path class="cls-7" d="M61,0a60.82,60.82,0,0,1,5.3,121.4v4.3H97.5c-.4.6-2.8,4.9-4.9,4.9H68.5c5.3,7.8,11.8,19.4,38.9,39.8-10.2.1-16.7.9-20,2.6,1.1,2.5-17.3-26.8-19.8-42.4H66.2v48.7c-.8,4.6-7.1,5.7-9.8,7.3V143.8c-6.9,11.4-21.7,28.3-33.8,32.7,16.4-20.2,25.7-36.6,29-45.9H30c-2,0-4.5-4.3-4.9-4.9H56.3v-4.3a58.28,58.28,0,0,1-20-5c7.6-.6,14.2-1.4,20-2.2h0l9.7-1.5c11.5-2.1,17.9-4.2,19.6-5.3,2.2-.6-2.6-10.6-4.9-12.7,0,0-.2,4.3-46.4,20.7A60.73,60.73,0,0,1,61,0Zm2.1,80H51.9v9.9H69.1L69,68H52c-.1,2.2-.1,5.3-.1,8.5H67c-.4.5-1.9,3.5-3.9,3.5ZM86.4,42c2,0,3.5-3,3.9-3.6h-32q2.25-4,4.2-7.5H90.2c2,0,3.5-3,3.9-3.6H64.4a47,47,0,0,0,2.6-6c.9-5-5.7-8.3-10.4-11.7-.5,4.2-2.3,10.5-4.9,17.7h-23c.4.6,1.9,3.6,3.9,3.6H50.3c-.9,2.4-1.9,4.9-2.9,7.5H32.5c.4.6,1.9,3.6,3.9,3.6H46c-1,2.4-2,4.9-3.1,7.3H22.7c.4.6,1.9,3.6,3.9,3.6H41.4C35.7,66,29.5,78.9,25.1,87.6c2.5-1.4,9.7-11.4,17.5-23.3l-.1,34.4s8.3-2.4,9.4-5.1H69.2v5.3s9.8-3.1,10.1-5.2,0-27.7,0-27.7.3-.4.6-.9c6.7,12.5,14.6,23.2,14.9,21.1,1.1-1.2,5.1-3.7,14.1-4A85.83,85.83,0,0,1,79.6,53.1H96.4c2,0,3.5-3,3.9-3.6H77.5c-1.6-2.6-2.9-5.1-4.2-7.3H86.4ZM71.2,42H56.3c-1.4,2.4-2.9,4.8-4.4,7.3H73A38.69,38.69,0,0,1,71.2,42Zm3.1,10.9H49.7c-1.4,2.3-2.9,4.7-4.4,7,2.7.3,6.4,3.9,7,4.4H69.1s4.1-5.6,5.8-6c.3-.3,1.2.3,2.3,1.1C76.1,57.2,75.1,55,74.3,52.9Z"/><text/></g></g></svg>