<svg width="679" height="919" xmlns="http://www.w3.org/2000/svg" xmlns:xlink="http://www.w3.org/1999/xlink" xml:space="preserve" overflow="hidden"><g transform="translate(-2046 -513)"><path d="M2104.15 682C2099.91 682 2096.84 685.19 2095.7 693.108 2093.55 689.438 2089.28 687.123 2085.22 687.123 2083.47 687.123 2081.77 687.554 2080.28 688.478 2075.04 691.569 2073.5 699.586 2077.82 703.909 2077.52 703.884 2077.24 703.872 2076.95 703.872 2069.67 703.872 2064.22 711.286 2063.63 718.416 2063.01 729.217 2069.49 744.34 2072.27 754.845 2082.45 793.108 2103.11 827.369 2125.32 860.091 2146.61 891.877 2173.76 921.828 2206.46 943.121 2231.79 959.783 2258.13 967 2286.62 967 2296.64 967 2306.92 966.101 2317.53 964.414 2361.32 957.32 2402.97 931.076 2424.26 891.877 2436.6 869.352 2439.99 845.584 2419.01 827.985 2404.69 815.732 2384.84 811.187 2365.83 811.187 2362.33 811.187 2358.87 811.347 2355.46 811.63 2343.13 812.554 2331.4 815.953 2319.06 817.185 2314.57 817.714 2310.09 817.973 2305.61 817.973 2271.01 817.973 2237.1 802.739 2209.23 781.692 2190.73 768.108 2174.37 751.754 2158.95 735.091 2154.78 730.658 2120.67 682 2104.15 682Z" fill="#AAB0B2" fill-rule="evenodd"/><path d="M2675.25 796.012C2672.44 796.012 2669.66 796.467 2667.01 797.475L2673.52 952.992C2676.07 953.668 2678.66 953.988 2681.25 953.988 2691.62 953.988 2701.99 948.864 2709.18 940.988 2733.99 914.19 2722.52 867.695 2713.52 836.277 2710.12 825.501 2706.09 814.418 2698.02 806.1 2692.22 800.104 2683.63 796.012 2675.25 796.012Z" fill="#BF4C28" fill-rule="evenodd"/><path d="M2583.45 708C2566.62 708 2549.55 712.264 2534.42 719.821L2515.01 1112.8C2524.98 1114.23 2535.15 1115 2545.3 1115 2568.07 1115 2590.86 1111.08 2611.73 1101.7 2647.17 1085.39 2661.34 1058.91 2677.97 1025.95 2689.36 1003.46 2693.37 975.446 2696.15 950.182 2702 895.059 2694.91 838.399 2675.19 786.348 2665.64 760.789 2651.79 735.23 2628.99 720.448 2615.31 711.871 2599.49 708 2583.45 708Z" fill="#FCBB3B" fill-rule="evenodd"/><path d="M2668.83 771.012C2623.82 781.192 2577.56 786.744 2531.01 787.052L2531.01 791.988C2578.19 791.372 2625.05 785.821 2670.99 775.333 2670.37 773.782 2669.45 772.551 2668.83 771.012Z" fill="#F9DE3D" fill-rule="evenodd"/><path d="M2695.39 871C2641.95 878.44 2587.96 881.497 2533.96 881.497 2531.41 881.497 2528.87 881.497 2526.32 881.474L2526.01 885.964C2528.58 885.988 2531.13 885.988 2533.69 885.988 2588 885.988 2642.28 882.931 2696 875.49 2695.69 873.998 2695.39 872.505 2695.39 871Z" fill="#F9DE3D" fill-rule="evenodd"/><path d="M2678.99 931 2678.99 931C2668.21 931.932 2657.75 932.546 2646.97 932.852 2629.98 933.65 2612.09 935.122 2594.06 935.122 2591.18 935.122 2588.28 935.085 2585.39 934.999L2585.39 934.999C2582.61 960.528 2582 989.418 2595.86 1011.25 2603.22 1022.92 2613.41 1027.99 2623.62 1027.99 2638.18 1027.99 2652.77 1017.68 2659.28 1001.42 2669.14 977.433 2678.07 955.609 2678.99 931Z" fill="#F9DE3D" fill-rule="evenodd"/><path d="M2293.73 1057C2224.65 1135.57 2174.37 1230.78 2149.09 1332.16 2135.7 1325.47 2118.62 1321.31 2101.7 1321.31 2080.44 1321.31 2059.45 1327.88 2046.4 1344.18 2043.01 1348.48 2103.14 1381.46 2108.08 1384.24 2145.08 1404.26 2186.71 1417.82 2226.49 1431.99 2284.17 1324.14 2346.45 1211.38 2451 1147.9L2293.73 1057Z" fill="#AAB0B2" fill-rule="evenodd"/><path d="M2354.57 513.012C2317.3 513.012 2279.93 522.721 2252.11 547.025 2187.64 603.472 2179 712.341 2247.18 770.634 2249.03 772.479 2250.88 774.03 2252.11 776.491 2253.03 778.657 2252.73 781.426 2252.73 783.899 2249.03 837.245 2253.34 889.68 2251.5 943.345 2250.57 972.953 2248.1 1002.56 2251.19 1032.17 2254.28 1061.47 2262.91 1091.08 2282.03 1113.9 2293.76 1128.09 2309.49 1139.19 2324.61 1149.37 2344.35 1162.33 2344.04 1169.72 2347.44 1193.47 2354.22 1240.97 2365.63 1287.85 2381.37 1333.49 2383.84 1340.59 2386.62 1347.68 2391.55 1353.24 2403.58 1366.48 2421.66 1370.66 2441.02 1370.66 2465.85 1370.66 2492.79 1363.8 2511.85 1360.33 2535.92 1356.01 2559.98 1350.46 2583.74 1343.98 2604.71 1338.11 2625.37 1327.64 2646.66 1324.25L2646.66 1324.25C2646.1 1324.43 2652.53 1346.77 2653.76 1348.92 2656.85 1353.85 2661.78 1357.24 2666.09 1360.94 2678.74 1371.73 2689.85 1377.59 2706.2 1380.99 2706.2 1380.99 2706.22 1380.99 2706.23 1380.99 2708 1380.99 2702.81 1348.91 2702.5 1346.75 2700.65 1331.03 2698.49 1315.3 2696.02 1299.88 2690.78 1268.41 2683.99 1237.27 2675.35 1206.74 2632.48 1207.05 2589.59 1214.75 2549.19 1229.86 2548.25 1170.95 2564.92 1111.74 2568.62 1052.52 2572.01 990.538 2572.01 928.234 2566.76 866.237 2560.6 795.922 2551.34 720.364 2531.9 652.818 2515.25 594.218 2478.84 539.322 2418.08 522.045 2398.24 516.347 2376.43 513.012 2354.57 513.012Z" fill="#B7BDBF" fill-rule="evenodd"/><path d="M2342.79 539C2305.43 539 2268.55 550.96 2242.22 579.347 2215.77 607.413 2205.01 649.04 2213 686.974 2223.15 734.765 2261.28 756.667 2304.34 764.382 2318.01 766.942 2332.14 767.988 2346.02 767.988 2357.12 767.988 2368.06 767.323 2378.45 766.228 2413.2 762.524 2455.95 751.426 2473.47 718.117 2491 684.501 2490.69 643.183 2477.16 608.029 2467.63 583.666 2442.1 565.467 2419.04 555.291 2395.76 544.955 2369.16 539 2342.79 539Z" fill="#FFFFFF" fill-rule="evenodd"/><path d="M2441.18 599C2425.32 599 2409.48 602.44 2395.06 609.358 2386.16 613.349 2377.54 619.177 2372.93 627.465 2369.24 633.905 2368.01 641.263 2368.32 648.634 2369.24 662.138 2375.08 675.63 2385.22 684.837 2396.92 695.28 2412.59 699.565 2427.97 702.332 2443.03 705.099 2458.71 706.936 2473.16 712.763 2473.78 713.07 2474.4 713.682 2475.32 713.988 2491 681.164 2490.39 641.888 2477.16 608.134 2476.55 606.897 2475.93 605.673 2475.32 604.448 2464.3 600.824 2452.74 599 2441.18 599Z" fill-rule="evenodd"/><path d="M2256.03 607C2246.7 607 2237.28 608.936 2228.6 612.302 2225.22 613.535 2221.84 614.768 2218.76 616.322 2210.16 638.566 2208 663.289 2212.92 686.471 2215.38 698.518 2220 709.023 2225.53 717.988 2233.51 713.66 2241.51 709.64 2249.82 706.249 2261.19 701.304 2272.86 697.285 2283.33 690.799 2293.78 683.992 2303 674.411 2306.07 662.056 2310.99 643.203 2299.92 622.808 2283.33 613.535 2274.94 609.01 2265.54 607 2256.03 607Z" fill-rule="evenodd"/><path d="M2548.24 725C2497.3 730.255 2447.6 742.588 2410.87 780.841 2374.13 818.786 2359 887.575 2368.57 938.468 2378.45 990.605 2410.87 1035.02 2458.71 1058.46 2483.13 1070.31 2511.07 1074.99 2539.07 1074.99 2548.23 1074.99 2557.4 1074.5 2566.45 1073.57 2567.06 1067.41 2567.69 1060.93 2568 1054.46L2568 1054.46C2559.6 1055.32 2551.16 1055.77 2542.73 1055.77 2521.05 1055.77 2499.36 1052.78 2478.47 1046.13 2434.95 1032.55 2402.84 992.451 2390.18 949.878 2375.99 901.754 2389.56 844.694 2416.42 803.66 2445.14 760.176 2502.24 748.139 2551.32 743.511 2550.4 737.345 2549.17 731.179 2548.24 725Z" fill="#FCBB3B" fill-rule="evenodd"/><path d="M2315.74 788C2311.07 788 2306.42 788.296 2301.82 788.911 2283.99 791.067 2267.07 797.238 2251.39 806.193 2249.85 851.88 2252.92 897.58 2251.39 943.883 2250.47 973.52 2248 1003.16 2251.08 1032.79 2254.16 1062.12 2262.76 1091.76 2281.83 1114.61 2293.53 1128.81 2309.21 1139.92 2324.28 1150.11 2329.81 1153.82 2333.51 1156.9 2336.27 1159.99 2341.49 1156.59 2346.11 1152.58 2350.72 1148.26 2409.77 1092.99 2431 1006.25 2426.08 925.357 2423.61 881.209 2411.62 833.675 2376.26 807.117 2359.07 794.43 2337.3 788 2315.74 788Z" fill="#C2D0D3" fill-rule="evenodd"/><path d="M2332.91 671.012C2331.83 671.012 2330.72 676.836 2330.36 684.494 2330 691.859 2330.36 697.988 2331.45 697.988 2332.19 697.988 2333.28 692.165 2333.64 684.494 2334 677.141 2333.64 671.012 2332.91 671.012Z" fill="#231F20" fill-rule="evenodd"/><path d="M2353.69 681.012C2353.06 681.012 2351.8 683.772 2348.99 687.464 2346.17 691.156 2341.17 696.075 2334.29 696.995 2333.36 697.154 2332.44 697.24 2331.53 697.24 2329.04 697.24 2326.65 696.664 2324.59 695.768 2322.09 694.529 2319.89 692.689 2318.33 690.849 2315.66 687.341 2313.82 684.667 2313.39 684.667 2313.36 684.667 2313.34 684.68 2313.32 684.692 2313.01 684.999 2313.95 687.771 2316.76 692.076 2318.33 693.916 2320.2 696.381 2323.65 697.915 2326 699.301 2328.69 699.988 2331.61 699.988 2332.59 699.988 2333.59 699.914 2334.6 699.755 2342.74 698.528 2348.06 692.689 2350.55 688.384 2353.38 684.079 2354 681.012 2353.69 681.012Z" fill="#231F20" fill-rule="evenodd"/><path d="M2277.76 639.012C2277.14 639.012 2277.14 643.893 2274.98 651.208 2274.06 654.872 2272.51 659.144 2270.35 663.416 2267.88 667.689 2264.79 672.569 2259.85 673.178 2259.44 673.227 2259.02 673.251 2258.62 673.251 2253.93 673.251 2250.06 670.111 2247.5 666.471 2244.42 662.503 2242.56 658.536 2241.32 654.872 2239.17 647.861 2239.17 642.98 2238.55 642.98 2238.23 642.98 2237 647.861 2238.86 655.785 2239.78 659.448 2241.32 664.025 2244.42 668.601 2245.96 670.732 2248.11 672.874 2250.59 674.699 2252.87 675.953 2255.55 677 2258.33 677 2258.94 677 2259.55 676.951 2260.16 676.842 2263.87 676.537 2266.64 674.395 2268.81 671.961 2270.66 669.819 2272.2 667.384 2273.44 664.938 2275.6 660.057 2277.14 655.48 2277.76 651.829 2279 643.893 2278.08 639.012 2277.76 639.012Z" fill="#B7BDBF" fill-rule="evenodd"/><path d="M2396.44 632.013C2396.13 632.013 2394 637.325 2394 647.013 2394 651.702 2394.3 657.326 2396.44 663.261 2397.35 666.391 2398.86 669.508 2401 672.326 2403.42 675.132 2406.77 677.327 2410.73 677.95 2411.07 677.975 2411.41 677.987 2411.75 677.987 2415.35 677.987 2418.86 676.541 2421.36 674.82 2424.4 672.638 2426.53 670.443 2428.35 667.95 2432.3 662.949 2434.74 657.637 2436.26 653.261 2438.99 644.195 2437.77 638.26 2437.47 638.26 2436.86 638.26 2436.86 643.884 2433.82 652.325 2432 656.39 2429.56 661.066 2425.92 665.443 2424.09 667.95 2421.97 669.82 2419.23 671.703 2417.12 673.062 2414.77 673.947 2412.18 673.947 2411.81 673.947 2411.42 673.922 2411.03 673.885 2405.24 673.573 2401.6 667.326 2399.47 662.014 2397.65 656.702 2396.74 651.39 2396.44 646.702 2395.82 637.948 2397.04 632.324 2396.44 632.013Z" fill="#B7BDBF" fill-rule="evenodd"/><path d="M2271.13 681C2261.19 681 2250.58 684.906 2244.52 691.645 2241.45 695.354 2239.01 700.295 2240.23 704.915 2241.15 708.316 2243.91 711.1 2246.65 712.948 2251.89 716.312 2258.05 717.988 2264.13 717.988 2265.86 717.988 2267.6 717.852 2269.29 717.581 2278.78 716.041 2289.79 712.024 2293.77 702.451 2294.07 701.527 2294.38 700.295 2294.38 699.05 2294.99 693.185 2290.7 687.013 2285.2 684.228 2281.16 682.035 2276.23 681 2271.13 681Z" fill="#F3A79D" fill-rule="evenodd"/><path d="M2407.15 682.012C2401.44 682.012 2395.86 683.169 2391.31 685.798 2387.01 688.233 2383.32 692.202 2383.01 697.084 2383.01 700.444 2384.54 703.792 2387.01 706.544 2391.92 712.643 2399.29 716.308 2407.28 717.525 2409.3 717.842 2411.33 718 2413.38 718 2419.13 718 2424.96 716.807 2430.62 714.786 2433.69 713.556 2435.84 711.121 2436.76 707.761 2437.99 704.401 2437.68 700.444 2436.46 697.084 2434.61 691.898 2430.01 688.233 2425.1 685.798 2419.79 683.4 2413.4 682.012 2407.15 682.012Z" fill="#F3A79D" fill-rule="evenodd"/><path d="M2334.93 650C2329.85 650 2324.73 650.81 2320.03 652.123 2309.01 655.497 2313.91 668.724 2319.12 674.871 2323.2 679.804 2328.99 684 2335.6 684 2336.42 684 2337.27 683.926 2338.11 683.792 2341.47 683.178 2344.84 681.644 2347.6 679.485 2349.74 678.258 2351.58 676.417 2353.42 674.871 2356.48 671.804 2362 665.338 2359.54 660.724 2358.32 658.27 2356.17 656.736 2354.03 655.19 2348.57 651.485 2341.8 650 2334.93 650Z" fill="#914D27" fill-rule="evenodd"/><path d="M2216.48 785.012 2210.01 834.081 2365.66 860 2427 822.346 2216.48 785.012Z" fill="#F3A79D" fill-rule="evenodd"/><path d="M2226.15 795.012C2226.15 795.012 2200.63 807.895 2196.01 808.826L2301.5 864.988 2418.99 826.008 2226.15 795.012Z" fill="#F7EFE2" fill-rule="evenodd"/><path d="M2427 822 2391.32 830.93 2363.01 1108 2399.92 1095.07 2427 822Z" fill="#E88C85" fill-rule="evenodd"/><path d="M2190.77 804.012 2158 1082.43 2363.56 1108 2392 830.802 2190.77 804.012Z" fill="#F3A79D" fill-rule="evenodd"/><path d="M2491.75 796C2487.93 796 2483.9 796.541 2479.64 797.673 2458.01 803.54 2440.72 821.413 2429.9 840.22 2423.72 851.007 2419.4 862.729 2413.53 873.517 2394.69 908.043 2358.86 930.848 2321.48 943.185 2299.56 950.59 2277.01 954.588 2254.47 957.983 2246.74 958.905 2155.01 958.905 2183.73 985.425 2183.54 985.412 2183.35 985.4 2183.15 985.4 2177.17 985.4 2171.37 989.927 2171.07 995.597 2170.49 1001.03 2175.52 1006.48 2180.94 1006.48 2181.36 1006.48 2181.77 1006.45 2182.19 1006.38L2182.19 1006.38C2177.55 1012.24 2180.34 1021.8 2186.2 1026.42 2194.86 1032.89 2210.61 1036.29 2221.11 1039.99 2258.48 1053.54 2298.33 1056.32 2337.86 1056.94 2339.84 1056.98 2341.81 1056.99 2343.79 1056.99 2380.01 1056.99 2417.9 1051.56 2452.45 1037.82 2490.45 1022.41 2515.46 995.904 2533.37 958.905 2552.83 918.831 2555 869.507 2534.92 829.74 2525.58 810.588 2511.68 796 2491.75 796Z" fill="#AAB0B2" fill-rule="evenodd"/></g></svg>