<svg width="550" height="1000" xmlns="http://www.w3.org/2000/svg" xmlns:xlink="http://www.w3.org/1999/xlink" xml:space="preserve" overflow="hidden"><defs><clipPath id="clip0"><rect x="2148" y="457" width="550" height="1000"/></clipPath></defs><g clip-path="url(#clip0)" transform="translate(-2148 -457)"><path d="M2435.6 737.012 2383.51 744.918C2377.86 743.205 2372.14 742.416 2366.45 742.416 2335.66 742.416 2305.77 765.756 2292.15 794.524 2276.01 828.611 2277.23 868.187 2279.37 905.614 2281.8 947.315 2285.15 989.927 2302.5 1027.67 2319.87 1065.4 2354.28 1097.97 2395.7 1101.62 2398.39 1101.88 2401.06 1102 2403.72 1102 2446.08 1102 2485.17 1070.86 2503.51 1031.92 2523 990.534 2522.7 942.749 2515.38 897.708 2505.64 837.44 2482.18 776.576 2435.6 737.012Z" fill="#CC7544" fill-rule="evenodd"/><path d="M2514.64 467C2508.7 467 2502.74 468.016 2497.07 470.07 2467.39 480.986 2458 525.516 2467.39 552.786L2478.9 573.988C2489.19 572.779 2499.18 570.047 2509.47 568.234 2517.35 566.723 2525.52 565.2 2533.09 562.178 2567.3 547.939 2576.99 501.281 2546.72 477.952 2537.53 470.772 2526.13 467 2514.64 467Z" fill="#D4834E" fill-rule="evenodd"/><path d="M2509.62 506.012C2505.26 506.012 2500.85 507.421 2497.18 509.922 2491.37 513.88 2487.42 519.962 2484.97 526.652 2482.22 533.354 2481 540.65 2481.3 547.959L2489.24 558C2497.79 555.863 2506.33 553.131 2514.27 548.566 2529.53 540.043 2538.99 526.652 2523.73 512.35 2521.9 510.529 2519.46 508.707 2517.02 507.481 2514.67 506.486 2512.15 506.012 2509.62 506.012Z" fill="#F3A79D" fill-rule="evenodd"/><path d="M2223.34 457C2215.8 457 2208.05 459.015 2200.7 463.486 2186.42 472.06 2177.62 487.975 2177.32 504.818 2177 534.816 2212.87 558.084 2239.91 559L2262.4 555.629C2264.53 546.138 2265.74 536.648 2267.26 526.852 2268.78 519.512 2270 511.853 2270 503.89 2269.3 477.349 2247.34 457 2223.34 457Z" fill="#D4834E" fill-rule="evenodd"/><path d="M2233.5 493.012C2230.45 493.012 2226.99 493.854 2223.09 495.744 2220.98 496.646 2218.56 498.151 2216.75 499.968 2212.22 504.492 2211 511.725 2212.52 517.754 2214.02 524.096 2217.95 529.523 2222.79 533.747 2227.92 538.272 2233.96 541.882 2240.31 544L2251.48 540.679C2252.39 532.231 2252.99 524.096 2251.78 515.949 2249.67 503.301 2244.09 493.012 2233.5 493.012Z" fill="#F3A79D" fill-rule="evenodd"/><path d="M2652.01 874.012 2667.95 1000C2678.06 998.187 2686.34 990.611 2690.94 981.221 2695.54 972.134 2696.76 961.839 2697.38 951.543 2697.99 935.194 2696.46 918.53 2689.1 903.691 2682.05 889.154 2668.56 876.731 2652.01 874.012Z" fill="#E88C85" fill-rule="evenodd"/><path d="M2546.48 741.012C2514.22 741.012 2480.12 754.287 2453 766.336L2534.78 1096C2566.71 1092.04 2599.24 1086.26 2626.9 1069.51 2702 1024.46 2681.94 921.579 2657.31 852.787 2644.84 817.772 2625.38 772.117 2591.64 752.332 2577.72 744.207 2562.32 741.012 2546.48 741.012Z" fill="#F3A79D" fill-rule="evenodd"/><path d="M2572.36 1092C2559.9 1092 2547.35 1097.21 2538.32 1105.74L2531.01 1161C2541.03 1168.5 2557.53 1175.99 2571.96 1175.99 2576.83 1175.99 2581.46 1175.14 2585.53 1173.15 2602.89 1164.34 2615.99 1145.52 2613.25 1126.69 2611.11 1110.6 2598.32 1097.23 2582.79 1093.28 2579.37 1092.41 2575.87 1092 2572.36 1092Z" fill="#CC7544" fill-rule="evenodd"/><path d="M2418.34 1025.01C2370.89 1025.01 2324.02 1041.93 2282.15 1064.78 2219 1099.42 2282.76 1222.8 2316.63 1262.91L2369.1 1268.99C2417.92 1236.48 2457.88 1190.89 2483.82 1138.63 2491.44 1123.43 2497.86 1107.33 2499.07 1090.32 2499.99 1073.6 2495.41 1055.66 2483.21 1043.82 2471.31 1031.96 2453.62 1027.72 2436.83 1025.89 2430.68 1025.29 2424.5 1025.01 2418.34 1025.01Z" fill="#CC7544" fill-rule="evenodd"/><path d="M2518.76 1196 2408 1315.74C2419.6 1338.84 2434.25 1360.71 2450.72 1380.78 2429.06 1397.18 2414.72 1415.12 2419.91 1443.99 2420.34 1443.99 2420.79 1444 2421.23 1444 2434.83 1444 2448.39 1439.57 2461.09 1434.87 2502.28 1420.28 2542.56 1402.05 2581 1381.08 2576.12 1360.71 2563.3 1344.91 2553.54 1326.98 2542.86 1307.53 2532.49 1288.08 2526.69 1266.81 2520.28 1243.71 2517.54 1219.7 2518.76 1196Z" fill="#CC7544" fill-rule="evenodd"/><path d="M2459.2 741.012C2456.7 741.012 2454.17 742.081 2452.41 744.666 2419.69 790.298 2416.01 860.887 2422.43 914.737 2429.17 969.194 2455.16 1020.31 2496.45 1056.83 2498.12 1058.34 2499.98 1058.99 2501.78 1058.99 2508.24 1058.99 2513.99 1050.73 2507.78 1045.26 2470.76 1012.4 2449.05 969.194 2439.87 920.819 2430.08 869.106 2435.28 796.695 2466.48 752.581 2470.53 746.645 2464.93 741.012 2459.2 741.012Z" fill="#E88C85" fill-rule="evenodd"/><path d="M2348.15 500C2321.31 500 2293.98 503.658 2269.86 515.361 2233.29 533.032 2204.04 568.056 2190.33 605.828 2174.8 648.764 2169.01 716.99 2194.9 756.9 2216.24 790.406 2253.7 810.507 2293.32 810.507L2353.33 829.392C2395.37 828.785 2429.49 830 2466.96 809.595 2496.81 793.444 2528.81 769.078 2536.12 734.053 2547.7 679.839 2548 601.866 2510.83 557.094 2476.71 515.969 2420.96 503.792 2370.08 500.741 2362.86 500.28 2355.52 500 2348.15 500Z" fill="#D4834E" fill-rule="evenodd"/><path d="M2337.44 596.012C2324.08 596.012 2310.48 600.954 2299.82 610.254 2283.03 624.897 2272.65 645.944 2265.33 667.598 2261.97 676.752 2259.23 686.514 2258.61 696.581 2258 706.648 2260.14 717.018 2265.64 724.955 2271.74 733.196 2280.59 738.077 2289.75 742.045 2305.52 748.874 2322.6 753 2339.49 753 2349.74 753 2359.92 751.479 2369.72 748.143 2377.96 745.392 2385.9 741.436 2391.39 734.717 2397.19 727.706 2399.93 718.248 2401.16 709.094 2402.99 691.395 2399.02 673.709 2394.13 656.923 2390.78 643.801 2386.81 630.996 2379.79 619.7 2370.02 603.535 2353.91 596.012 2337.44 596.012Z" fill="#F9B087" fill-rule="evenodd"/><path d="M2225.99 665C2223.07 665 2220.34 665.305 2218.07 665.879 2211.09 667.71 2205 673.839 2205.91 680.871 2206.22 685.461 2209.26 689.441 2212.6 692.188 2218.13 696.644 2225.11 699 2232.15 699 2234.76 699 2237.4 698.67 2239.95 697.999 2246.03 696.168 2252.1 691.577 2253.01 685.461 2254.99 670.775 2238.68 665 2225.99 665Z" fill="#FCBB3B" fill-rule="evenodd"/><path d="M2448.73 661C2441.32 661 2433.55 663.281 2428.75 666.293 2422.66 669.964 2419 677.903 2421.44 684.329 2423.27 688.61 2427.23 691.354 2431.5 692.878 2435.07 694.317 2438.85 695 2442.62 695 2448.54 695 2454.41 693.305 2459.25 690.134 2464.73 686.464 2469 680.659 2468.09 674.244 2466.4 664.451 2457.85 661 2448.73 661Z" fill="#FCBB3B" fill-rule="evenodd"/><path d="M2328.37 651.012 2328.37 651.012C2327.74 651.012 2325.84 657.073 2324.58 664.355 2323.33 671.625 2323.01 677.685 2323.64 677.988 2324.58 677.988 2326.16 672.23 2327.43 664.657 2328.69 657.375 2329 651.315 2328.37 651.012Z" fill="#914D27" fill-rule="evenodd"/><path d="M2309.38 663C2309.35 663 2309.33 663.012 2309.32 663.025 2309.01 663.025 2309.32 665.797 2311.14 669.795 2312.36 671.635 2313.59 673.794 2315.72 675.94 2317.86 678.087 2321.2 679.632 2324.56 679.939 2325.05 679.975 2325.53 680 2326.01 680 2332.32 680 2337.27 676.357 2340.11 673.794 2343.47 671.022 2344.99 668.875 2344.68 668.556 2344.66 668.544 2344.64 668.532 2344.6 668.532 2344.1 668.532 2342.3 670.273 2339.2 672.555 2336.14 674.517 2331.56 677.253 2326.39 677.253 2325.89 677.253 2325.38 677.228 2324.86 677.167 2318.77 676.86 2315.11 671.942 2312.98 668.556 2310.67 665.367 2309.73 663 2309.38 663Z" fill="#914D27" fill-rule="evenodd"/><path d="M2233.44 607.012C2233.14 607.012 2231.32 612.43 2231.01 621.763 2231.01 626.279 2231.01 631.697 2232.83 638.015 2233.74 641.03 2235.27 644.033 2238 646.748 2240.26 649.258 2243.83 651 2247.73 651 2248.03 651 2248.35 650.988 2248.65 650.964 2252.91 650.664 2256.26 647.949 2258.39 645.246 2260.52 642.532 2262.34 639.829 2263.86 637.114 2266.91 631.697 2268.42 626.58 2269.95 622.063 2272.38 613.33 2272.99 607.913 2272.38 607.613L2272.38 607.613C2271.77 607.613 2270.26 612.73 2267.21 621.162 2265.69 625.378 2263.56 630.496 2260.52 635.312 2258.99 638.015 2257.47 640.43 2255.35 642.832 2253.52 644.946 2251.09 647.048 2248.35 647.048 2248.12 647.072 2247.87 647.084 2247.63 647.084 2245.09 647.084 2242.41 645.691 2240.75 644.033 2238.61 642.231 2237.09 639.529 2236.49 636.814 2234.65 631.396 2234.35 625.979 2234.05 621.763 2233.44 612.73 2234.05 607.312 2233.44 607.012Z" fill="#914D27" fill-rule="evenodd"/><path d="M2453.06 605C2452.47 605 2451.84 611.311 2449.21 621.111 2447.7 625.666 2445.61 631.432 2442.01 636.896 2440.22 639.936 2438.12 642.359 2435.73 645.097 2433.33 647.216 2430.34 649.651 2427.04 649.954 2426.79 649.978 2426.53 649.99 2426.28 649.99 2423.54 649.99 2420.85 648.525 2418.65 646.308 2416.26 643.873 2414.77 640.845 2413.26 638.107 2410.27 632.038 2408.77 626.272 2407.87 621.414 2406.08 611.396 2407.27 605.012 2406.68 605.012 2406.66 605.012 2406.65 605 2406.63 605 2405.98 605 2404.01 611.336 2405.18 621.717 2405.48 626.877 2406.98 633.249 2409.97 639.621 2411.47 642.662 2413.26 646.005 2415.96 649.034 2418.38 651.759 2421.99 653.988 2426.16 653.988 2426.65 653.988 2427.14 653.964 2427.64 653.891 2432.43 653.285 2435.73 650.56 2438.43 647.822 2441.12 645.097 2443.52 642.056 2445.31 639.015 2448.61 632.946 2450.7 626.877 2451.9 621.717 2454 611.396 2453.7 605.012 2453.1 605.012 2453.08 605.012 2453.07 605 2453.06 605Z" fill="#914D27" fill-rule="evenodd"/><path d="M2276.56 769C2265.08 769 2255.84 776.746 2252.38 789.375 2250.24 798.119 2249 807.164 2249.32 816.209 2249.62 825.855 2252.07 836.704 2260.66 842.73 2264.83 845.689 2269.9 847 2275.07 847 2282.06 847 2289.24 844.606 2294.69 840.625 2304.51 833.697 2310.64 823.137 2316.15 812.889L2318 804.758C2311.55 789.976 2300.82 775.507 2285.19 770.383 2282.22 769.457 2279.32 769 2276.56 769Z" fill="#BF4C28" fill-rule="evenodd"/><path d="M2285.71 794.012C2285.48 794.012 2285.35 794.049 2285.31 794.123 2285.01 794.735 2290.45 797.81 2297.69 800.578 2303.74 803.248 2308.88 804.988 2310.31 804.988 2310.52 804.988 2310.65 804.951 2310.69 804.878 2310.99 804.253 2305.55 801.19 2298.61 798.116 2292.56 795.715 2287.21 794.012 2285.71 794.012Z" fill="#A84126" fill-rule="evenodd"/><path d="M2314.45 808.013C2313.16 808.013 2306.54 810.393 2299.2 813.554 2290.69 817.406 2284.01 821.258 2284.31 821.898 2284.34 821.962 2284.45 822 2284.62 822 2286.08 822 2292.48 819.607 2300.11 816.446 2308.61 812.594 2314.99 808.742 2314.69 808.103 2314.69 808.039 2314.61 808.013 2314.45 808.013Z" fill="#A84126" fill-rule="evenodd"/><path d="M2363.28 776.012C2361.81 776.012 2360.28 776.132 2358.72 776.374 2342.43 778.786 2329.45 791.484 2321 805.087L2321.3 813.541C2325.23 824.43 2329.45 835.609 2337.6 844.075 2343.51 849.996 2352.09 854 2360.32 854 2363.85 854 2367.32 853.264 2370.48 851.624 2379.54 847.09 2383.76 836.815 2385.58 827.445 2387.39 818.376 2387.99 809.32 2387.08 800.251 2385.72 785.563 2376.55 776.012 2363.28 776.012Z" fill="#BF4C28" fill-rule="evenodd"/><path d="M2353.76 799C2351.71 799 2346.59 799.864 2340.68 801.293 2332.92 803.094 2327.01 804.907 2327.32 805.808 2327.32 805.928 2327.58 805.988 2328.09 805.988 2329.98 805.988 2335.16 805.124 2341.3 803.695 2348.77 801.894 2354.99 800.093 2354.68 799.192 2354.62 799.06 2354.29 799 2353.76 799Z" fill="#A84126" fill-rule="evenodd"/><path d="M2322.54 809.012C2322.43 809.012 2322.35 809.036 2322.32 809.072 2322 809.688 2328.11 814.227 2335.73 819.068 2343.09 823.547 2349.12 827 2350.22 827 2350.31 827 2350.35 826.976 2350.38 826.928 2350.99 826.022 2344.89 821.785 2337.27 816.944 2329.91 812.453 2323.88 809.012 2322.54 809.012Z" fill="#A84126" fill-rule="evenodd"/><path d="M2319.12 793.012C2316.25 793.012 2313.35 794.589 2311.5 797.319 2309.7 799.758 2308.81 803.094 2308.21 806.139 2307.3 810.701 2307 815.87 2308.81 820.128 2310.43 823.428 2314.04 825.988 2317.53 825.988 2318.55 825.988 2319.55 825.77 2320.5 825.296 2323.2 824.083 2324.7 821.038 2325.59 818.296 2326.79 815.263 2327.7 810.095 2328 805.533 2328 801.881 2327.4 798.229 2325.3 796.106 2323.58 793.971 2321.36 793.012 2319.12 793.012Z" fill="#A84126" fill-rule="evenodd"/><path d="M2536.02 1041 2410.79 1088.81C2335.23 1173.76 2285.87 1281.55 2270.94 1394.2 2257.23 1398.47 2243.52 1402.43 2231.64 1410.65 2220.05 1418.56 2210.62 1431.35 2210 1445.67 2262.6 1453.05 2315.71 1456.99 2368.88 1456.99 2372.69 1456.99 2376.51 1456.96 2380.33 1456.93 2381.54 1456.93 2403.78 1375.63 2407.13 1368.63 2421.15 1338.18 2442.78 1311.99 2465.02 1287.33 2504.93 1242.88 2546.98 1198.42 2556.13 1136.61 2561 1103.72 2554.91 1068.41 2536.02 1041Z" fill="#D4834E" fill-rule="evenodd"/><path d="M2665.22 921.012C2644.25 927.438 2623.28 933.558 2602 939.067 2602.3 951.93 2603.52 964.488 2605.95 976.728 2608.08 987.136 2611.12 997.544 2617.19 1005.51 2622.26 1012.21 2628.14 1014.99 2634.11 1014.99 2646.43 1014.99 2659.18 1003.19 2666.12 989.591 2669.17 983.459 2670.99 976.728 2670.99 970.608 2670.99 966.32 2668.56 933.558 2665.22 921.012Z" fill="#E88C85" fill-rule="evenodd"/><path d="M2616.95 776.012C2602.96 781.501 2589.28 786.685 2575.9 791.87 2540.31 805.294 2503.81 816.272 2467 825.728L2467.92 830C2510.19 819.01 2551.56 806.207 2592.32 790.349 2601.44 786.99 2610.57 783.326 2620 779.663 2619.09 778.446 2617.88 777.229 2616.95 776.012Z" fill="#E88C85" fill-rule="evenodd"/><path d="M2652.48 841.012C2598.96 865.39 2542.4 883.069 2484.01 893.732L2485.23 898C2543.61 887.641 2600.18 869.962 2654 845.28 2653.7 844.064 2653.09 842.532 2652.48 841.012Z" fill="#E88C85" fill-rule="evenodd"/><path d="M2328.04 611C2322.51 611 2317.72 611.561 2314.71 612.552 2311.07 614.044 2307.44 615.846 2305.03 619.129 2302.91 621.827 2302 625.719 2302 629.3 2302 638.874 2307.14 647.553 2313.5 654.142 2316.52 657.425 2319.54 660.123 2323.48 661.615 2325.93 662.57 2328.48 663 2331.07 663 2335.78 663 2340.53 661.544 2344.64 659.228 2351.29 655.933 2356.44 650.549 2361.58 645.464 2363.99 642.766 2366.72 640.08 2368.23 636.487 2376 617.852 2347.48 611 2328.04 611Z" fill="#914D27" fill-rule="evenodd"/><path d="M2217.87 821 2213 879.793 2321.98 915.005 2376.77 918.988 2404.16 879.793 2412.99 842.125 2217.87 821Z" fill="#FCBB3B" fill-rule="evenodd"/><path d="M2229.16 834.012 2186 863.504 2396.32 889 2410 848.452 2229.16 834.012Z" fill="#F7EFE2" fill-rule="evenodd"/><path d="M2413.47 842 2382.18 867.573 2178.01 861.477 2178.01 1113.77 2380.97 1115C2380.97 1115 2412.56 1110.74 2420.16 1099.78 2439 991.736 2413.47 842 2413.47 842Z" fill="#FCBB3B" fill-rule="evenodd"/><path d="M2413.39 842 2382.01 867.593C2387.8 915.098 2396.33 1011.95 2387.5 1113.99 2397.25 1112.17 2414.62 1107.9 2420.11 1099.99 2439 991.854 2413.39 842 2413.39 842Z" fill="#EDAB37" fill-rule="evenodd"/><path d="M2505.26 779C2499.54 779 2493.38 779.933 2486.76 781.969 2444.98 794.412 2443.46 831.162 2449.55 867.608 2455.35 902.528 2467.24 936.539 2471.82 972.367 2472.42 978.438 2473.04 985.126 2469.99 990.288 2466.63 996.661 2459.31 999.702 2452.6 1002.13 2432.77 1009.12 2411.72 1013.07 2391.9 1020.65 2371.77 1028.25 2345.52 1030.67 2336.69 1053.45 2326 1080.79 2345.83 1108.41 2372.37 1115.1 2394.03 1120.36 2416.3 1122.99 2438.59 1122.99 2467.81 1122.99 2497.03 1118.46 2524.9 1109.32 2534.96 1106.29 2545.03 1102.04 2553.57 1095.67 2563.94 1087.46 2570.96 1075.62 2576.45 1063.47 2602.99 1004.86 2600.55 936.236 2581.33 875.799 2569.67 838.553 2551.03 779 2505.26 779Z" fill="#CC7748" fill-rule="evenodd"/><path d="M2339.78 1049.01C2339.19 1050.11 2338.6 1051.21 2338.01 1052.6 2341.35 1052.88 2344.46 1053 2347.13 1053 2352.46 1053 2356 1052.5 2356 1051.78 2356 1050.94 2348.92 1049.84 2339.78 1049.01Z" fill="#A0532D" fill-rule="evenodd"/><path d="M2370.66 1066C2364.68 1066 2353.12 1066.77 2339.82 1068.19 2337.69 1068.19 2335.84 1068.53 2334.01 1068.53 2334.01 1070.25 2334.32 1071.63 2334.32 1073 2336.15 1073 2337.99 1072.66 2340.13 1072.66 2359.39 1070.59 2374.99 1067.85 2374.99 1066.48 2374.9 1066.15 2373.34 1066 2370.66 1066Z" fill="#A0532D" fill-rule="evenodd"/><path d="M2356.58 1088.01C2354.19 1088.01 2348.16 1089.27 2341 1091.79 2341.61 1092.95 2342.22 1094.12 2343.13 1094.99 2351.62 1091.79 2358 1089.16 2357.7 1088.29 2357.62 1088.1 2357.25 1088.01 2356.58 1088.01Z" fill="#A0532D" fill-rule="evenodd"/><path d="M2224.98 935C2207.79 935 2190.33 938.484 2175.19 945.707 2152.08 956.656 2146 970.956 2149.04 996.206 2152.08 1024.81 2172.46 1036.98 2199.21 1039.41 2207.11 1040.2 2215.23 1040.99 2223.59 1040.99 2224.89 1040.99 2226.19 1040.98 2227.49 1040.93 2247.55 1040.02 2267.32 1034.54 2279.48 1015.68 2287.68 1002.29 2288 985.256 2283.44 970.349 2280.7 961.524 2276.44 952.699 2269.45 946.921 2261.54 940.232 2250.9 937.185 2240.57 935.971 2235.45 935.328 2230.22 935 2224.98 935Z" fill="#D4834E" fill-rule="evenodd"/><path d="M2280.16 960.013C2266.4 963.107 2256.01 967.762 2256.32 968.691 2256.37 968.901 2256.72 969 2257.32 969 2260.35 969 2269.82 966.623 2280.77 964.036L2281.99 964.036C2281.38 962.488 2280.77 961.25 2280.16 960.013Z" fill="#A0532D" fill-rule="evenodd"/><path d="M2286.99 987C2285.14 987 2283.28 987.325 2281.43 987.325 2263.52 989.291 2249 990.918 2249 992.219 2249 992.688 2252.3 993 2257.67 993 2263.68 993 2272.28 992.597 2281.74 991.568 2283.59 991.568 2285.14 991.243 2286.99 991.243 2286.99 989.616 2286.99 988.301 2286.99 987Z" fill="#A0532D" fill-rule="evenodd"/><path d="M2259.81 1013.01C2258.9 1013.01 2258.39 1013.13 2258.31 1013.43 2258 1014.42 2266.17 1017.71 2277.17 1020 2278.11 1019.02 2279.05 1017.71 2280 1016.38 2270.71 1014.6 2262.94 1013.01 2259.81 1013.01Z" fill="#A0532D" fill-rule="evenodd"/></g></svg>