<svg width="965" height="1077" xmlns="http://www.w3.org/2000/svg" xmlns:xlink="http://www.w3.org/1999/xlink" xml:space="preserve" overflow="hidden"><defs><clipPath id="clip0"><rect x="458" y="461" width="965" height="1077"/></clipPath></defs><g clip-path="url(#clip0)" transform="translate(-458 -461)"><path d="M1422.65 646.015C1422.61 646.361 1422.56 646.706 1422.52 647.052L1422.52 647.052C1422.61 646.721 1422.65 646.376 1422.65 646.015ZM1422.52 647.052 1422.52 647.052C1422.05 648.751 1420.47 650.013 1418.89 651.276 1407.15 659.243 1394.69 660.506 1381.86 660.506 1375.87 660.506 1369.78 660.235 1363.66 660.235 1361.81 660.235 1359.94 660.265 1358.09 660.326 1336.18 661.453 1313.89 666.353 1296.14 678.785 1278.39 691.216 1265.93 712.697 1268.2 734.539L1258 739.44C1258.39 739.425 1258.78 739.41 1259.18 739.41 1265.53 739.41 1271.59 742.236 1277.63 744.716 1286.1 748.098 1295.99 748.985 1305.84 748.985 1313.57 748.985 1321.27 748.444 1328.25 748.113 1351.29 746.595 1375.46 741.319 1392.83 726.256 1404.15 716.455 1410.19 704.776 1413.97 691.216 1416.23 683.31 1420.39 676.53 1421.9 668.608 1422.99 661.423 1421.66 654.237 1422.52 647.052Z" fill="#DC702D" fill-rule="evenodd"/><path d="M838.795 872.015C832.558 872.015 826.291 872.106 820.055 872.241 795.891 872.994 770.598 873.386 747.941 882.437 712.072 896.774 670.915 937.917 653.561 971.892 631.281 1014.92 615.794 1063.98 618.069 1112.3L609 1235.73C629.849 1241.36 651.527 1243 673.115 1243 680.451 1243 687.803 1242.8 695.079 1242.52 780.043 1239.49 864.239 1223.27 944.277 1194.58 976.741 1182.88 1025.44 1176.84 1036.02 1138.35 1047.35 1097.21 1049.99 1053.03 1032.63 1013.04 1016.39 976.049 992.228 937.541 963.153 909.996 928.655 877.166 883.958 872.015 838.795 872.015Z" fill="#F2AF36" fill-rule="evenodd"/><path d="M1275.52 724C1274.65 724 1273.71 724.135 1272.73 724.437 1225.14 739.145 1184.34 771.981 1179.43 824.418 1173.76 885.933 1204.35 938.746 1228.9 992.704 1261.4 1064.4 1274.24 1159.48 1193.77 1204.02 1171.15 1216.8 1144.61 1220.37 1118.52 1220.37 1108.44 1220.37 1098.45 1219.84 1088.77 1219.1 1050.62 1216.09 1007.94 1209.29 974.694 1188.92 973.111 1187.98 971.559 1187.58 970.097 1187.58 962.139 1187.58 957.015 1199.73 965.636 1205.15 1003.51 1228.62 1058.76 1240 1107.74 1240 1121.76 1240 1135.27 1239.07 1147.7 1237.21 1208.14 1227.78 1253.83 1193.83 1269.7 1133.83 1286.33 1072.33 1257.62 1008.93 1231.56 954.6 1214.56 918.753 1198.69 883.66 1196.8 843.673 1194.92 791.221 1230.8 756.88 1277.63 742.548 1287.98 739.1 1284.79 724 1275.52 724Z" fill="#FCBB3B" fill-rule="evenodd"/><path d="M863.192 461C795.334 461 726.092 479.357 668.457 510.003 611.109 540.573 561.665 589.637 538.268 651.531 516.015 711.166 517.144 776.463 522.805 838.748 527.337 887.435 534.127 938.381 561.665 978.393 574.493 996.886 591.099 1012.37 607.706 1027.46 631.48 1048.98 655.63 1070.86 684.688 1084.06 718.263 1099.17 755.632 1101.8 792.233 1104.08 817.527 1105.51 843.137 1106.98 868.642 1106.98 910.453 1106.98 951.932 1102.99 991.093 1088.22 1023.16 1076.14 1052.6 1057.65 1081.65 1038.78 1114.1 1018.01 1149.2 992.73 1169.57 958.771 1190.71 924.044 1201.65 883.279 1206.18 842.513 1211.45 791.191 1215.98 711.542 1187.3 666.635 1172.97 643.986 1154.48 620.96 1137.5 600.208 1098.26 551.898 1049.19 511.885 992.599 486.977 952.58 469.072 908.194 461 863.192 461Z" fill="#DC702D" fill-rule="evenodd"/><path d="M1187.48 666.015C1103.76 703.874 1020.04 741.359 936.339 779.233 935.015 779.891 936.008 781.985 937.287 781.985 937.468 781.985 937.648 781.94 937.844 781.85 1021.56 743.991 1105.28 706.506 1189 668.632 1188.62 667.885 1188.23 667.137 1187.86 666.763 1187.86 666.389 1187.48 666.015 1187.48 666.015Z" fill="#C65C22" fill-rule="evenodd"/><path d="M994.971 488C951.919 569.834 908.866 651.653 865.814 733.863 865.015 734.932 866.1 736 867.2 736 867.667 736 868.119 735.819 868.451 735.368L998 489.505C996.87 489.129 996.116 488.376 994.971 488Z" fill="#C65C22" fill-rule="evenodd"/><path d="M782.008 469C780.886 469 780.137 469.377 779 469.377 800.385 558.955 821.382 648.533 842.767 737.733 842.917 738.623 843.471 738.985 844.069 738.985 844.982 738.985 846 738.125 845.776 736.979 824.39 647.779 803.379 558.201 782.008 469Z" fill="#C65C22" fill-rule="evenodd"/><path d="M573.887 588.015C573.51 588.771 572.755 589.527 572 590.283 642.752 639.161 712.357 689.189 781.223 740.713 781.479 740.909 781.736 741 781.977 741 783.155 741 783.985 739.005 782.732 738.067 713.882 686.906 644.262 636.894 573.887 588.015Z" fill="#C65C22" fill-rule="evenodd"/><path d="M796.765 796C796.675 796 796.569 796.015 796.448 796.045 705.255 811.916 614.439 829.688 524 848.968 524 850.114 524 851.246 524.377 852 614.816 832.72 706.01 814.948 797.203 799.063 798.985 798.716 798.426 796 796.765 796Z" fill="#C65C22" fill-rule="evenodd"/><path d="M832.835 846.015C832.549 846.015 832.249 846.09 831.918 846.286 777.655 886.723 725.662 930.552 676.661 977.411 657.07 996.679 638.231 1017.08 619.015 1036.74 619.767 1037.49 620.519 1038.25 621.271 1039 637.855 1021.62 654.063 1004.23 671.008 987.603 721.888 937.351 776.527 891.246 833.421 848.925 834.985 847.99 834.218 846.015 832.835 846.015Z" fill="#C65C22" fill-rule="evenodd"/><path d="M860.549 840C859.782 840 859.015 840.466 859.015 841.414 866.316 929.609 873.617 1017.8 880.917 1105.98L884 1105.98C876.7 1017.8 869.384 929.609 862.083 841.414 862.083 840.466 861.316 840 860.549 840Z" fill="#C65C22" fill-rule="evenodd"/><path d="M890.02 831C888.829 831 888.015 832.966 889.266 833.912 974.278 888.078 1061.55 937.728 1150.72 984 1151.48 983.25 1152.23 982.499 1153 981.749 1063.45 935.477 976.162 885.437 890.774 831.27 890.518 831.09 890.261 831 890.02 831Z" fill="#C65C22" fill-rule="evenodd"/><path d="M920.894 809.015C919.015 809.015 919.015 812.051 920.894 812.051L1207.62 824.985C1207.62 823.846 1207.62 823.087 1208 821.949 1112.3 817.759 1016.6 813.19 920.894 809.015Z" fill="#C65C22" fill-rule="evenodd"/><path d="M844.586 636C841.061 636 837.552 636.09 834.057 636.256 793.284 638.516 752.886 653.63 723.063 680.061 688.706 710.273 671.339 752.948 664.17 796.014 658.506 828.11 657 864.365 671.731 894.954 689.459 931.209 725.714 951.597 764.59 960.669 793.901 967.645 823.724 971.985 853.262 971.985 886.097 971.985 918.557 966.621 949.57 953.496 984.304 938.759 1007.7 910.445 1018.27 876.073 1033 828.487 1026.19 779.77 1009.59 733.69 1005.44 722.735 1000.53 711.795 994.486 701.97 987.316 690.639 978.264 680.437 966.56 672.511 931.646 648.763 887.709 636 844.586 636Z" fill="#FCBB3B" fill-rule="evenodd"/><path d="M720.813 594C714.706 594 708.06 595.276 700.905 598.085 694.902 600.337 688.9 603.341 683.661 607.486 636.015 647.387 682.897 707.231 732.055 710.985L763.938 692.168C780 655.015 763.13 594 720.813 594Z" fill="#FCBB3B" fill-rule="evenodd"/><path d="M710.913 622.015C709.248 622.015 707.598 622.209 706.054 622.569 698.454 623.692 691.249 627.077 685.935 632.708 682.907 636.078 681.015 640.586 681.015 645.094 681.015 648.464 682.529 651.474 684.043 654.469 692.005 669.117 707.189 679.99 723.887 683L732.606 674.748C732.985 660.849 730.714 646.592 725.4 633.083 724.265 630.447 723.13 627.451 720.844 625.564 718.24 622.988 714.561 622.015 710.913 622.015Z" fill="#F9DE3D" fill-rule="evenodd"/><path d="M1009.24 603.015C977.044 603.015 946.621 637.998 945.015 673.373L964.572 704.737C973.382 708.281 983.408 709.985 993.615 709.985 1033.54 709.985 1075.98 683.838 1057.12 638.978 1054.48 632.555 1051.47 626.885 1046.96 621.984 1035.25 608.594 1022.1 603.015 1009.24 603.015Z" fill="#FCBB3B" fill-rule="evenodd"/><path d="M1002.52 641C1002.19 641 1001.85 641.015 1001.52 641.045 998.136 641.421 995.117 642.923 992.488 644.425 977.798 652.716 967.268 668.142 965 684.709L973.291 692.985C987.591 692.985 1001.52 690.356 1014.7 685.084 1017.71 683.958 1020.35 682.456 1022.61 680.188 1025.99 676.057 1025.99 670.41 1024.86 665.138 1023.73 657.988 1019.96 650.823 1014.33 645.942 1010.83 643.148 1006.7 641 1002.52 641Z" fill="#F9DE3D" fill-rule="evenodd"/><path d="M847.827 636.015C845.733 636.015 843.639 636.045 841.56 636.106L777 780.527 779.651 784.323 811.359 811.985 888 793.412 880.062 638.753C869.623 636.847 858.657 636.015 847.827 636.015Z" fill="#F9DE3D" fill-rule="evenodd"/><path d="M720.358 801.015C715.571 801.015 710.921 802.007 706.876 804.159 701.181 806.829 697.015 812.948 697.394 819.067 697.773 824.041 700.802 828.634 703.847 832.083 709.164 837.423 715.617 841.635 722.827 843.161 725.038 843.725 727.295 843.985 729.507 843.985 734.884 843.985 740.05 842.428 744.094 839.727 752.819 834.371 757 824.423 748.26 813.726 742.004 805.837 730.885 801.015 720.358 801.015Z" fill="#FCBB3B" fill-rule="evenodd"/><path d="M934.683 804C924.317 804 913.524 808.184 907.366 815.757 903.159 820.646 902.015 827.784 905.064 833.048 907.366 837.547 911.573 840.186 916.146 842.061 920.918 843.89 926.253 844.985 931.497 844.985 933.799 844.985 936.085 844.775 938.311 844.325 945.567 842.81 952.442 838.312 956.268 832.298 962 824.02 961.619 813.493 949.012 807.104 944.729 805.005 939.759 804 934.683 804Z" fill="#FCBB3B" fill-rule="evenodd"/><path d="M728.395 730.015C727.923 730.015 725.761 736.057 725.396 746.041 725 751.383 725.396 757.486 727.299 763.97 728.06 767.409 729.583 770.833 732.262 773.893 734.927 776.936 738.368 779.615 742.555 780.756 743.438 780.909 744.336 780.985 745.219 780.985 748.615 780.985 752.055 779.904 754.766 778.093 757.826 775.795 760.11 773.132 762.409 770.073 766.215 764.731 768.895 759.008 770.798 754.442 774.62 744.9 775 738.416 774.62 738.416 774.589 738.401 774.574 738.401 774.543 738.401 773.782 738.401 772.579 744.413 768.514 753.286 766.215 757.867 763.551 762.828 759.729 768.17 756.456 772.751 751.781 777.332 746.163 777.332 745.25 777.332 744.291 777.21 743.316 776.936 736.449 775.414 732.262 769.312 730.344 763.209 728.441 757.106 728.06 751.003 727.68 746.041 727.68 736.133 729.202 730.031 728.441 730.031 728.426 730.015 728.41 730.015 728.395 730.015Z" fill="#914D27" fill-rule="evenodd"/><path d="M901.274 744.015C900.898 744.015 899.376 750.475 899 761.121 899.376 766.064 899.768 772.524 902.027 779.364 903.157 782.776 905.04 786.203 907.315 789.236 909.574 792.663 912.978 795.696 917.497 796.849 918.175 796.94 918.822 797 919.455 797 923.522 797 926.971 795.059 929.577 793.421 932.981 791.147 935.617 788.478 938.268 785.824 942.802 780.501 945.815 774.799 947.698 769.856 951.855 759.983 952.985 753.902 952.608 753.508L952.608 753.508C952.232 753.508 949.972 759.604 945.438 768.718 943.179 773.283 940.151 778.606 935.617 783.534 933.358 786.203 930.722 788.478 927.694 790.388 925.525 791.935 922.603 793.239 919.952 793.239 919.365 793.239 918.807 793.179 918.265 793.042 914.861 792.663 912.225 790.009 909.951 787.34 908.068 784.307 906.561 781.259 905.04 778.226 902.781 772.145 902.027 766.064 901.651 760.742 901.274 750.475 901.651 744.015 901.274 744.015Z" fill="#914D27" fill-rule="evenodd"/><path d="M817.901 823.015C817.177 823.015 814.993 832.001 813.184 843.619 811.738 855.236 811.014 864.611 811.738 864.985 812.823 864.985 814.993 855.61 816.816 844.381 818.262 832.764 818.986 823.389 817.901 823.015Z" fill="#914D27" fill-rule="evenodd"/><path d="M789.757 844.015C789.378 844.015 789 848.099 792.044 853.683 795.072 859.267 801.901 866.337 812.153 867.837 813.198 867.941 814.243 867.985 815.242 867.985 824.464 867.985 831.914 863.663 835.685 859.639 840.243 854.797 841 850.713 840.622 850.713 840.591 850.683 840.576 850.683 840.546 850.683 840.046 850.683 838.123 854.233 833.777 857.782 830.128 861.049 823.541 864.302 816.09 864.302 815.045 864.302 813.985 864.242 812.91 864.109 804.188 862.995 797.344 857.039 794.315 852.569 790.893 847.728 790.136 844.015 789.757 844.015Z" fill="#914D27" fill-rule="evenodd"/><path d="M755.427 944C739.33 944 726.396 954.924 721.532 973.196 718.506 985.674 717 998.906 717.377 1011.76 717.753 1025.76 721.156 1041.26 732.856 1049.96 738.788 1054.14 745.94 1056 753.258 1056 763.151 1056 773.345 1052.59 781.16 1046.93 795.118 1036.73 803.415 1021.6 811.35 1007.23L813.985 995.511C804.935 974.327 789.833 953.536 767.563 945.977 763.377 944.649 759.311 944 755.427 944Z" fill="#BF4C28" fill-rule="evenodd"/><path d="M767.487 980.015C767.426 980.015 767.395 980.029 767.395 980.044 767 980.769 775.018 984.41 784.922 988.777 794.567 992.52 802.539 994.986 803.513 994.986 803.574 994.986 803.62 994.971 803.62 994.957 804 994.231 795.982 990.59 786.078 986.586 776.432 982.51 768.46 980.015 767.487 980.015Z" fill="#A03D22" fill-rule="evenodd"/><path d="M809.28 1001.01C807.405 1001.01 798.344 1004.19 787.437 1008.89 775.781 1013.71 766 1018.53 766.375 1018.9 766.42 1018.96 766.51 1018.99 766.675 1018.99 768.46 1018.99 777.566 1015.51 788.562 1011.11 800.219 1006.31 810 1001.49 809.625 1001.12 809.58 1001.04 809.46 1001.01 809.28 1001.01Z" fill="#A03D22" fill-rule="evenodd"/><path d="M877.768 954C875.686 954 873.529 954.166 871.327 954.499 848.423 957.918 830.029 976.115 818.015 995.826L818.39 1007.58C824.022 1023.49 829.654 1039.8 841.668 1051.93 850.086 1060.18 862.19 1065.98 873.993 1065.98 879.012 1065.98 883.985 1064.93 888.598 1062.55 901.361 1056.11 907.368 1041.31 909.989 1027.67 912.625 1014.78 913 1001.89 911.877 988.625 910.184 967.765 896.882 954 877.768 954Z" fill="#BF4C28" fill-rule="evenodd"/><path d="M864.093 988.014C861.582 988.014 854.24 989.347 845.636 991.425 835.575 993.575 827 996.097 827.372 996.814 827.372 996.943 827.639 997 828.13 997 830.418 997 837.759 995.653 846.379 993.575 856.797 991.067 865 988.559 865 988.201 864.926 988.072 864.613 988.014 864.093 988.014Z" fill="#A03D22" fill-rule="evenodd"/><path d="M820.552 1001.02C820.462 1001.02 820.403 1001.05 820.373 1001.09 820 1001.48 828.605 1008.04 839.433 1014.99 849.918 1021.71 858.643 1026.98 859.553 1026.98 859.597 1026.98 859.612 1026.98 859.627 1026.97 860 1026.2 851.782 1020.02 840.94 1012.68 830.783 1006.16 821.954 1001.02 820.552 1001.02Z" fill="#A03D22" fill-rule="evenodd"/><path d="M815.067 981C811.295 981 807.599 983.053 805.065 986.647 802.787 990.059 801.655 993.834 800.901 998.001 799.769 1004.06 799.015 1010.86 801.655 1016.16 803.692 1020.53 808.399 1024 813.045 1024 814.448 1024 815.851 1023.68 817.164 1022.97 820.558 1021.46 822.459 1017.67 823.968 1013.9 825.476 1009.73 826.608 1003.68 826.985 997.623 826.985 992.701 825.854 988.157 823.591 985.137 821.086 982.299 818.054 981 815.067 981Z" fill="#A03D22" fill-rule="evenodd"/><path d="M817.217 770C804.441 770.379 791.65 772.286 780.014 777.979 779.249 778.736 778.125 779.115 777.375 780.25 777 781.386 777.375 782.522 777.75 783.672 779.249 790.501 781.513 797.33 785.262 803.023 791.275 812.88 798.803 820.859 807.065 828.823 809.705 831.473 812.704 834.138 816.093 835.273 817.592 835.773 819.137 835.985 820.696 835.985 823.815 835.985 826.979 835.152 829.993 834.138 837.506 832.245 844.644 831.094 851.407 827.309 863.433 819.708 874.335 812.501 884.111 802.644 885.611 801.493 886.736 799.979 887.875 798.465 888.625 796.951 889 794.665 887.875 793.151 886.361 790.122 879.223 786.322 876.224 784.051 870.211 779.493 862.308 776.45 855.545 774.179 847.283 771.908 839.38 770.757 831.118 770Z" fill="#914D27" fill-rule="evenodd"/><path d="M957.446 680C956.875 680 956.304 680.015 955.748 680.03 949.721 680.03 943.318 681.519 939.921 686.002 932.015 696.83 943.318 705.409 951.975 709.519 957.687 712.111 966.224 715 974.04 715 978.609 715 982.923 714.002 986.259 711.381 994 705.394 991.52 694.03 984.185 689.279L984.185 689.279 984.381 689.368C977.256 683.023 967.111 680 957.446 680Z" fill="#914D27" fill-rule="evenodd"/><path d="M740.166 670C731.602 670 722.84 671.905 715.785 676.539L715.785 676.539C707.129 680.558 703.015 692.467 710.848 699.471 714.566 702.8 720.021 704 725.72 704 732.897 704 740.501 702.11 745.606 700.236 754.764 696.846 766.985 689.332 759.731 677.679 756.684 672.79 750.192 670.915 744.463 670.165 743.046 670.06 741.613 670 740.166 670Z" fill="#914D27" fill-rule="evenodd"/><path d="M659.552 938 610 976.931 714.385 1133 818 1108.05 659.552 938Z" fill="#F7EFE2" fill-rule="evenodd"/><path d="M1033.33 963 796.912 1105.13 792.015 1108.14 849.032 1172.98 1018.59 1100.98 1076 1007.12 1033.33 963Z" fill="#F7EFE2" fill-rule="evenodd"/><path d="M599.871 962 584 1290.61 769.098 1392.09 830.667 1397 1067.51 1324.57 1083 987.274 846.537 1100.08 783.446 1095.17 599.871 962Z" fill="#914D27" fill-rule="evenodd"/><path d="M781.446 1094C779.176 1155.8 772.773 1301.28 769.015 1391.72L769.391 1392.1 830.42 1397 847 1100.41 846.624 1100.41 783.701 1095.5 781.446 1094Z" fill="#A0532D" fill-rule="evenodd"/><path d="M1068.8 1091.02C1057.01 1091.02 1043.13 1098 1032.73 1102.16 1019.09 1108.17 1004.71 1113.06 992.968 1122.45 974.037 1137.46 971 1176.9 990.324 1191.54 1002.73 1200.83 1030.77 1214 1053.22 1214 1067.11 1214 1078.85 1208.98 1083.47 1194.93 1090.66 1173.51 1099 1139.73 1092.56 1117.94 1091.79 1114.18 1090.28 1109.68 1088.77 1105.17 1084.53 1094.55 1077.18 1091.02 1068.8 1091.02Z" fill="#FCBB3B" fill-rule="evenodd"/><path d="M1012.53 1111.02C1005.62 1114.01 999.083 1117.77 993.316 1122.28 990.248 1124.53 987.932 1127.17 986.015 1130.54 987.932 1130.91 989.466 1131.66 991.399 1132.43 994.65 1133.27 998.025 1134 1001.26 1134 1003.75 1134 1006.14 1133.57 1008.32 1132.43 1014.47 1129.04 1016 1120.78 1014.07 1114.4 1013.68 1113.26 1013.3 1112.14 1012.53 1111.02Z" fill="#DC702D" fill-rule="evenodd"/><path d="M980.424 1143C977.379 1152.75 977 1163.62 979.667 1172.98 982.697 1171.49 985.742 1169.62 988.394 1167.36 991.818 1165.12 995.227 1161.74 995.606 1157.25 995.985 1152 991.06 1147.13 986.121 1144.88 984.227 1144.12 982.318 1143.75 980.424 1143Z" fill="#DC702D" fill-rule="evenodd"/><path d="M990.437 1180C987.625 1180 984.812 1180.21 982 1180.65 984.259 1184.83 986.877 1188.65 990.632 1191.69 995.119 1195.13 1001.12 1198.56 1007.88 1201.98 1009.38 1200.46 1010.87 1198.94 1012.37 1197.41 1013.49 1195.51 1015 1193.61 1015 1191.31 1015 1185.98 1009.38 1182.93 1004.5 1181.79 999.817 1180.59 995.119 1180 990.437 1180Z" fill="#DC702D" fill-rule="evenodd"/><path d="M589.751 1091.02C581.467 1091.02 574.266 1094.55 570.192 1105.17 568.298 1109.68 567.171 1114.18 566.043 1117.94 560.015 1139.73 567.922 1173.51 575.078 1194.93 579.693 1208.98 591.374 1214 605.175 1214 627.529 1214 655.43 1200.83 667.773 1191.54 686.985 1176.9 684.354 1137.46 665.127 1122.45 653.461 1113.06 639.135 1108.17 625.575 1102.16 615.232 1098 601.416 1091.02 589.751 1091.02Z" fill="#FCBB3B" fill-rule="evenodd"/><path d="M646.423 1111.02C646.044 1112.14 645.287 1113.26 644.908 1114.4 643.015 1120.78 644.53 1129.04 650.602 1132.43 652.753 1133.57 655.115 1134 657.569 1134 660.749 1134 664.08 1133.27 667.306 1132.43 669.199 1131.66 671.092 1130.91 673 1130.54 670.713 1127.17 668.442 1124.53 665.398 1122.28 659.719 1117.77 653.253 1114.01 646.423 1111.02Z" fill="#DC702D" fill-rule="evenodd"/><path d="M678.576 1143C676.667 1143.75 674.773 1144.12 672.879 1144.88 667.94 1147.13 663 1152 663.379 1157.25 663.758 1161.74 667.182 1165.12 670.591 1167.36 673.258 1169.62 676.288 1171.49 679.333 1172.98 681.985 1163.62 681.606 1152.75 678.576 1143Z" fill="#DC702D" fill-rule="evenodd"/><path d="M667.582 1180C662.932 1180 658.326 1180.59 653.886 1181.79 648.637 1182.93 643.015 1185.98 643.015 1191.31 643.015 1193.61 644.51 1195.51 645.632 1197.41 647.142 1198.94 648.637 1200.46 650.133 1201.98 656.876 1198.56 663.246 1195.13 667.373 1191.69 671.126 1188.65 673.742 1184.83 675.985 1180.65 673.174 1180.21 670.363 1180 667.582 1180Z" fill="#DC702D" fill-rule="evenodd"/><path d="M536.84 1214.02C522.119 1214.02 507.595 1216.36 494.229 1222.42 471.591 1232.58 458.015 1244.26 458.768 1269.87 460.273 1316.22 495.734 1354.65 528.561 1383.28 574.197 1422.84 627.766 1456.38 650.779 1468.43 663.603 1474.84 676.803 1480.86 690.018 1486.52 749.999 1512.13 813.365 1529.46 877.876 1537.37 879.441 1537.71 881.097 1537.98 882.723 1537.98 884.604 1537.98 886.44 1537.62 888.066 1536.62 900.513 1529.84 916.348 1495.17 922.383 1482.74 938.985 1448.08 931.821 1407.39 924.28 1369.72 922.263 1369.43 920.246 1369.28 918.244 1369.28 904.773 1369.28 891.498 1375.61 881.654 1384.79 869.959 1395.33 862.779 1409.66 857.888 1424.34 856.789 1427.6 854.667 1431.9 851.491 1431.9 851.355 1431.9 851.22 1431.89 851.084 1431.87 811.484 1378.77 768.858 1329.78 716.419 1288.72 673.793 1255.56 625.132 1228.45 572.316 1217.89 560.696 1215.53 548.715 1214.02 536.84 1214.02Z" fill="#F2AF36" fill-rule="evenodd"/><path d="M1112.17 1214.02C1100.3 1214.02 1088.32 1215.53 1076.7 1217.89 1023.88 1228.45 975.215 1255.56 932.588 1288.72 880.147 1329.78 837.52 1378.77 797.918 1431.87 797.783 1431.89 797.647 1431.9 797.512 1431.9 794.336 1431.9 792.214 1427.6 791.115 1424.34 786.223 1409.66 779.043 1395.33 767.348 1384.79 757.504 1375.61 744.228 1369.28 730.756 1369.28 728.755 1369.28 726.738 1369.43 724.721 1369.72 717.18 1407.39 710.015 1448.08 726.617 1482.74 732.653 1495.17 748.111 1529.84 760.936 1536.62 762.561 1537.62 764.398 1537.98 766.279 1537.98 767.905 1537.98 769.56 1537.71 771.126 1537.37 835.638 1529.46 899.007 1512.13 958.989 1486.52 972.205 1480.86 985.405 1474.84 997.853 1468.43 1021.24 1456.38 1074.81 1422.84 1120.45 1383.28 1153.28 1354.65 1188.74 1316.22 1190.25 1269.87 1191 1244.26 1177.42 1232.58 1154.79 1222.42 1141.42 1216.36 1126.89 1214.02 1112.17 1214.02Z" fill="#FCBB3B" fill-rule="evenodd"/></g></svg>