<svg width="1145" height="940" xmlns="http://www.w3.org/2000/svg" xmlns:xlink="http://www.w3.org/1999/xlink" xml:space="preserve" overflow="hidden"><defs><clipPath id="clip0"><rect x="248" y="458" width="1145" height="940"/></clipPath></defs><g clip-path="url(#clip0)" transform="translate(-248 -458)"><path d="M248 1301.5C248 1248.2 504.317 1205 820.5 1205 1136.68 1205 1393 1248.2 1393 1301.5 1393 1354.8 1136.68 1398 820.5 1398 504.317 1398 248 1354.8 248 1301.5Z" fill="#6F772E" fill-rule="evenodd"/><path d="M131.169 0.014422C129.671 0.014422 128.174 0.115376 126.677 0.389395 116.209 1.8316 107.901 9.77815 101.048 18.0997 76.8727 47.3764 62.4312 83.8786 39.3363 114.251 29.603 127.621 16.6013 140.269 0.0143983 141.351L60.6314 201C95.9937 197.38 127.756 173.887 146.877 143.889 166.373 114.251 175.026 78.4559 177.92 42.6748 178.64 34.7283 179 26.0462 175.026 18.8208 169.252 8.6965 156.625 5.09098 145.078 2.19215 140.441 1.09608 135.805 0.014422 131.169 0.014422Z" fill="#9FA85D" fill-rule="evenodd" transform="matrix(-1 0 0 1 1082 747)"/><path d="M12.5389 0.0144258C8.34479 0.0144258 4.16517 0.17311 0.0144624 0.504904L17.7743 74.9855C23.2121 67.3975 31.5425 61.9734 38.8026 55.828 45.3251 49.6826 51.1245 42.4552 55.4632 34.4922 59.4548 27.2648 62.0002 17.4985 57.2855 10.6318 53.6554 5.56837 46.7713 3.76514 40.2488 2.32256 31.2387 0.822273 21.8816 0.0144258 12.5389 0.0144258Z" fill="#6E772D" fill-rule="evenodd" transform="matrix(-1 0 0 1 707 664)"/><path d="M7.72279 0C5.14852 0 2.58881 0.0857584 0.0145439 0.242982L19.6924 82.9855C27.357 75.8247 35.0071 68.6639 43.0207 61.8604 51.7761 53.6133 61.2442 44.6658 64.1675 33.2028 65.9855 26.0277 64.8947 17.7949 59.4262 12.778 56.881 10.2767 53.5941 8.83311 50.3072 7.76114 36.6796 2.58704 22.2521 0 7.72279 0Z" fill="#6E772D" fill-rule="evenodd" transform="matrix(-1 0 0 1 690 760)"/><path d="M18.996 0C12.63 0 6.24944 0.57599 0 1.78557L17.5246 82.9858C29.9361 73.9715 41.255 63.1429 51.1172 51.2343 56.5945 45.1 61.3435 38.2314 63.1645 29.9371 64.9854 22.0028 63.1645 12.6142 56.5945 7.91987 53.3023 5.39991 49.2963 3.94553 45.2756 3.22555 36.7682 1.12318 27.8821 0 18.996 0Z" fill="#6E772D" fill-rule="evenodd" transform="matrix(-1 0 0 1 682 879)"/><path d="M57.5337 0C55.0536 0 52.559 0.2168 50.2375 0.520319 32.8908 3.42543 15.9047 8.49855 0.0144195 16.101L57.1155 68.9856C64.3397 54.8648 70.1219 40.0068 74.1017 24.7874 75.9041 18.6303 76.9856 12.1119 73.7412 6.67743 70.3526 1.45978 63.9504 0 57.5337 0Z" fill="#6E772D" fill-rule="evenodd" transform="matrix(-1 0 0 1 661 985)"/><path d="M48.3003 0.0144174C30.8426 0.0144174 13.6007 5.14701 0.0143922 16.2772L26.3378 391C50.8765 391 75.4009 391 99.2057 385.579 122.651 379.798 145.736 367.874 160.171 347.993 192.985 301.742 188.668 242.486 182.537 189.358 177.845 148.888 165.942 110.235 148.629 73.7306 135.273 46.2798 114.361 20.9773 86.5837 8.33326 74.6669 2.91231 61.426 0.0144174 48.3003 0.0144174Z" fill="#FCBB3B" fill-rule="evenodd" transform="matrix(-1 0 0 1 701 631)"/><path d="M44.0536 0C29.2586 0 14.0891 2.53704 0.014406 7.22192L38.9971 85.9855C51.6456 67.2028 59.9435 45.5226 63.5594 23.1217 64.6398 16.9809 65 9.75896 61.0239 5.05967 57.0623 0.72075 50.1906 0 44.0536 0Z" fill="#6E772D" fill-rule="evenodd" transform="matrix(-1 0 0 1 748 560)"/><path d="M37.895 0.0143267C37.6645 0.0143267 37.4339 0.0143267 37.2034 0.0286534 29.9846 0.744988 24.2067 6.48999 20.2299 12.235 9.76913 26.2465 2.89616 42.7508 0.0144087 59.9858L81.9858 44.1978C75.1272 31.9915 66.4531 20.5015 56.3526 10.086 51.4536 5.21491 44.8688 0.0143267 37.895 0.0143267Z" fill="#6E772D" fill-rule="evenodd" transform="matrix(-1 0 0 1 551 1008)"/><path d="M135.544 0C91.4584 17.1943 46.2772 31.4548 0.0144211 42.0662L0.374948 45C46.9983 34.3886 92.54 20.1135 137 2.55433 136.64 1.82452 135.904 0.729809 135.544 0Z" fill="#F9CC3D" fill-rule="evenodd" transform="matrix(-1 0 0 1 695 691)"/><path d="M166.986 0.0144673C113.265 19.5887 56.9944 32.291 0 38.0923L0.362099 40.9858C56.9944 35.1844 113.265 22.4966 166.986 2.90792 166.986 1.82288 166.986 0.737831 166.986 0.0144673Z" fill="#F9CC3D" fill-rule="evenodd" transform="matrix(-1 0 0 1 681 898)"/><path d="M3.20169 0C2.07168 0 0.999624 0.741148 0.738852 2.06666 0.0144873 3.49195 0.738852 4.91723 2.18758 5.62987L72.6248 30.9999 73.7114 30.9999C74.8124 30.9999 75.899 30.2873 76.6233 29.2041 76.9855 27.7788 76.2611 25.9972 74.8124 25.6409L4.36068 0.270804C3.99849 0.0855171 3.59285 0 3.20169 0Z" fill="#FCBB3B" fill-rule="evenodd" transform="matrix(-1 0 0 1 1041 515)"/><path d="M428.122 0C422.364 0 416.634 1.10872 411.35 3.41256 393.31 10.6264 383.938 28.3084 382.484 47.0847 365.164 47.4446 348.205 51.7643 330.165 52.4987 327.646 42.3906 324.032 32.6425 317.539 24.7086 311.089 17.5812 302.106 12.3687 292.359 12.3687 291.726 12.3687 291.106 12.3975 290.473 12.4407 282.9 13.1607 276.047 17.4804 270.274 21.8144 260.167 29.4027 256.554 38.7764 253.674 49.9644 250.781 61.5124 249.701 73.0604 251.155 84.6084 224.808 92.1822 197.022 96.1564 170.316 101.57 163.477 103.01 82.1778 121.009 82.2786 121.772L82.2786 121.772C80.8389 117.092 79.3992 111.678 76.8654 107.344 72.8342 100.721 66.2692 96.8475 58.9987 96.8475 57.1703 96.8475 55.2987 97.0923 53.4127 97.5963 43.8387 100.087 35.6469 114.083 40.1819 123.817L40.1819 123.817C35.9348 115.321 26.7927 103.37 17.6507 103.37 13.9507 103.37 10.2506 105.314 6.86735 110.239 0.014397 119.972 0.734245 135.134 1.45409 146.682 2.53386 163.284 3.98796 180.246 8.30704 196.488 13.7203 218.864 19.1336 229.678 44.0259 233.292 79.1833 238.245 114.326 240.477 149.484 240.477 191.192 240.477 232.9 237.338 274.608 231.852L274.608 231.852C261.247 307.994 248.621 386.31 247.901 463.532 247.901 466.066 247.901 468.586 248.981 470.746 250.781 474.72 255.834 476.52 260.167 477.974 295.195 487.794 331.461 491.12 367.842 491.12 383.564 491.12 399.3 490.501 414.964 489.522 439.136 488.068 462.589 486.628 485.681 480.134 489.439 479.112 492.995 478.651 496.436 478.651 513.482 478.651 527.202 490.012 543.413 499.616 556.082 507.334 570.839 513.986 585.467 513.986 590.002 513.986 594.537 513.352 598.985 511.884 578.412 483.014 571.199 447.29 570.839 412.286 570.479 395.684 574.453 378.722 572.639 362.494 571.199 347.332 567.24 332.17 565.786 317.022 560.013 266.856 550.64 217.05 536.92 168.338 530.427 144.883 522.854 121.427 512.028 99.7705 507.334 90.3824 502.281 81.0086 495.068 73.4204 491.814 70.1806 473.055 58.6326 473.055 55.0185 472.335 44.1905 471.616 33.0025 466.922 23.2543 460.04 8.4234 444.002 0 428.122 0Z" fill="#B2BF6D" fill-rule="evenodd" transform="matrix(-1 0 0 1 1230 481)"/><path d="M823.417 0.0144046C820.981 0.0144046 818.373 0.806656 815.592 2.5208 808.732 6.85658 807.997 16.234 807.636 24.1853 805.835 78.6922 779.462 143.311 731.428 171.832 707.851 185.704 682.429 193.497 657.382 193.497 630.259 193.497 603.569 184.35 580.093 163.895 570.696 156.318 526.266 51.9717 539.279 48.0104L539.279 48.0104C489.07 62.8039 437.419 73.6362 385.407 80.4927 381.79 100.357 374.93 115.87 374.57 136.094 374.21 142.231 373.849 206.129 372.048 206.49 351.411 213.605 116.171 291.75 107.87 291.75 107.741 291.75 107.669 291.736 107.654 291.693 96.1537 261.04 61.7966 214.614 25.004 214.614 23.6637 214.614 22.309 214.671 20.9688 214.801 8.67574 252.339 1.81585 294.948 0.734988 334.287 0.0144115 355.231 1.45556 376.536 5.79343 396.745 6.8743 402.161 15.1897 440.794 20.6085 441.515 42.3699 444.669 64.2178 445.649 86.1089 445.649 121.345 445.649 156.697 443.128 192.077 443.128 205.105 443.128 218.147 443.474 231.175 444.41 280.664 448.011 329.779 454.147 379.268 456.683 420.802 458.843 463.057 463.539 504.965 463.899 508.035 463.957 511.105 464 514.174 464 528.442 464 542.709 463.352 556.977 462.459 601.033 459.203 645.824 451.266 686.997 435.018 814.871 384.833 863.985 242.962 858.206 114.79 857.543 99.55 850.799 0.0144046 823.417 0.0144046Z" fill="#B2BF6D" fill-rule="evenodd" transform="matrix(-1 0 0 1 1195 860)"/><path d="M114.953 0C112.503 0 110.068 0.0718334 107.633 0.201134 76.9282 1.6378 47.3182 12.4415 20.6045 27.9288 9.76911 92.7369 0.734845 158.278 0.0144087 223.445 0.0144087 225.974 0.0144087 228.488 1.09506 230.643 2.89615 234.608 7.95361 236.404 12.2906 237.855 47.6208 247.71 84.0749 251 120.788 251 156.493 251 192.457 247.883 227.888 244.693 235.467 243.975 243.407 242.883 251 241.446 250.265 200.042 246.303 158.996 238.709 118.31 234.026 92.7369 227.888 66.8194 212.716 45.5711 190.685 15.4873 152.415 0 114.953 0Z" fill="#DEEA8B" fill-rule="evenodd" transform="matrix(-1 0 0 1 982 721)"/><path d="M77.1807 5.43546C116.313 5.43546 148.55 37.6868 148.55 76.8193 148.55 116.313 116.313 148.189 77.1807 148.189 37.6868 148.189 5.79686 116.313 5.79686 76.8193 5.79686 37.6868 37.6868 5.43546 77.1807 5.43546ZM77.1807 0.014456C34.4198 0.014456 0 34.4198 0 76.8193 0 119.566 34.4198 153.986 77.1807 153.986 119.566 153.986 153.986 119.566 153.986 76.8193 153.986 34.4198 119.566 0.014456 77.1807 0.014456Z" fill="#FCBB3B" fill-rule="evenodd" transform="matrix(-1 0 0 1 1043 458)"/><path d="M76.8193 5.43546C116.313 5.43546 148.203 37.6868 148.203 76.8193 148.203 116.313 116.313 148.189 76.8193 148.189 37.6868 148.189 5.44992 116.313 5.44992 76.8193 5.44992 37.6868 37.6868 5.43546 76.8193 5.43546ZM76.8193 0.014456C34.4342 0.014456 0.014456 34.4198 0.014456 76.8193 0.014456 119.566 34.4342 153.986 76.8193 153.986 119.58 153.986 154 119.566 154 76.8193 154 34.4198 119.58 0.014456 76.8193 0.014456Z" fill="#FCBB3B" fill-rule="evenodd" transform="matrix(-1 0 0 1 879 458)"/><path d="M3.21566 0C2.05802 0 1.01472 0.703447 0.728883 1.895 0.0142918 3.68951 1.08618 5.13947 2.51536 5.49837L48.3635 17.3708C55.881 19.1653 61.2547 26.731 60.1828 34.6412L63.0555 35.0001 65.9139 35.0001C66.9857 24.5632 60.1828 14.4853 49.7927 11.9729L3.94454 0.100492C3.70158 0.0430682 3.45862 0 3.21566 0Z" fill="#FCBB3B" fill-rule="evenodd" transform="matrix(-1 0 0 1 731 524)"/><path d="M12.0072 0.0146627C11.5931 0.0146627 11.1791 0.0293254 10.7508 0.0586508 5.02559 0.439881 1.08507 5.20526 1.08507 5.57183 0.0142773 6.68619 0.0142773 8.51903 1.442 9.61874 1.79893 9.9853 2.5128 9.9853 3.22666 9.9853 3.9548 9.9853 4.66866 9.61874 5.38253 8.8856 5.38253 8.8856 7.88104 5.9384 11.4646 5.9384 11.7787 5.89441 12.0928 5.87975 12.4069 5.87975 14.5914 5.87975 16.7901 7.00877 18.9745 9.25217 19.4599 9.58941 20.0881 9.76536 20.7306 9.76536 21.5158 9.76536 22.3296 9.48677 22.915 8.8856 23.9858 7.7859 23.9858 5.9384 22.915 4.83869 19.3742 1.52492 15.8192 0.0146627 12.0072 0.0146627Z" fill="#FCBB3B" fill-rule="evenodd" transform="matrix(-1 0 0 1 896 516)"/><path d="M30.0003 0.0145695 30.0003 0.0145695C20.0002 0.743046 10.0001 1.47152 0 1.83576 1.08263 5.49272 2.50714 9.51391 3.93166 13.1563 5.7123 16.8132 8.21945 20.8344 12.1511 21.9272 12.5072 21.9709 12.8776 21.9854 13.248 21.9854 15.8121 21.9854 18.5329 20.9219 20.7124 18.9987 22.8492 16.8132 24.288 13.8848 25.7125 10.9709 27.137 7.31391 28.5615 3.67152 30.0003 0.0145695Z" fill="#F4EDD7" fill-rule="evenodd" transform="matrix(-1 0 0 1 1158 662)"/><path d="M22.9861 0 22.9861 0C15.3287 1.07791 7.67131 1.81088 0 2.52949 1.0423 6.84111 2.79336 10.8078 5.22539 14.7745 6.6846 16.8872 9.11663 18.9855 11.507 18.9855 11.9656 18.9855 12.4381 18.9137 12.8967 18.7412 14.2864 18.0082 15.3287 16.571 16.0236 15.4931 18.8169 10.4485 21.249 5.40391 22.9861 0Z" fill="#F4EDD7" fill-rule="evenodd" transform="matrix(-1 0 0 1 1112 658)"/><path d="M19.9999 0.0141289 19.9999 0.0141289C13.3286 0.720574 6.67131 1.42702 0.013986 1.78024 0.713284 6.38627 2.46153 10.9923 4.92306 14.5245 6.06991 16.2624 7.91606 18.0002 9.88808 18.0002 10.3356 18.0002 10.7832 17.9155 11.2307 17.7177 12.2797 17.3644 12.979 16.3048 13.6783 15.231 16.4895 10.6391 18.5874 5.3266 19.9999 0.0141289Z" fill="#F4EDD7" fill-rule="evenodd" transform="matrix(-1 0 0 1 1074 655)"/><path d="M19.9999 0.0143999 19.9999 0.0143999C13.5755 1.45439 6.79485 2.53438 0 3.26878 0.726493 7.22875 2.15099 11.2031 4.64386 14.4431 5.81195 16.2143 7.69228 17.9855 9.51564 17.9855 9.9145 17.9855 10.3276 17.8991 10.7122 17.6975 12.151 17.3375 12.8632 16.2575 13.2193 15.1775 16.0683 10.4831 18.5754 5.42876 19.9999 0.0143999Z" fill="#F4EDD7" fill-rule="evenodd" transform="matrix(-1 0 0 1 1042 651)"/><path d="M9.28055 0.0144679C4.63308 0.0144679 0 3.41444 1.85611 10.6773 2.71942 14.1786 5.94243 16.9854 9.23738 16.9854 10.0287 16.9854 10.8201 16.8262 11.5827 16.479 13.3956 15.7556 14.4748 14.2943 15.5539 12.8475 19.9855 4.514 14.633 0.0144679 9.28055 0.0144679Z" fill="#818945" fill-rule="evenodd" transform="matrix(-1 0 0 1 1222 598)"/><path d="M9.29493 0C4.64747 0 0.0143884 3.41742 1.85611 10.6722 2.71942 14.191 6.18703 17.0002 9.56831 17.0002 10.3741 17.0002 11.1798 16.8409 11.9568 16.4789 13.3956 16.1169 14.4748 14.6688 15.5539 12.8588 19.9855 4.50346 14.633 0 9.29493 0Z" fill="#818945" fill-rule="evenodd" transform="matrix(-1 0 0 1 1180 591)"/><path d="M85.1663 0.0144045C52.3292 31.7763 27.0644 72.2097 14.799 116.259 0.0143959 168.605 2.89358 226.367 25.2649 276.192 35.7307 300.377 51.6094 323.482 74.3406 337.195 88.4918 345.708 104.889 349.986 121.286 349.986 132.068 349.986 142.836 348.142 152.986 344.426 145.773 336.474 139.641 327.457 135.667 317.345 92.3787 311.209 58.4619 277.992 44.3827 235.758 20.2119 163.188 50.5153 96.4093 95.2579 40.4478 92.3787 27.0948 88.7653 13.3674 85.1663 0.0144045Z" fill="#FCBB3B" fill-rule="evenodd" transform="matrix(-1 0 0 1 771 667)"/><path d="M111.867 0.0143849C103.56 1.45288 95.2669 3.251 86.5998 4.70388 59.9072 9.73861 33.5601 15.507 6.85311 20.5561 0 41.8314 11.1867 85.1013 15.5203 100.954 19.8539 117.18 27.0669 133.766 41.1331 142.051 46.9784 145.461 53.4428 147 60.0079 147 74.9667 147 90.4294 139.059 99.9604 127.278 114.027 109.973 117.64 86.8995 118 64.9049 118 42.5507 116.561 21.6493 111.867 0.0143849Z" fill="#F9CC3D" fill-rule="evenodd" transform="matrix(-1 0 0 1 652 753)"/><path d="M7.83166 0C6.81267 0 5.79368 0.0429957 4.76013 0.100323 3.28988 5.13083 1.47026 10.5196 0.014557 15.5358L0.742406 30.9856C6.94368 26.3134 12.781 20.9246 17.8905 14.8192 19.7102 12.6694 21.5443 10.5196 22.6361 7.63891 23 5.84742 23 4.0416 22.6361 2.25011 17.7741 0.759592 12.8975 0 7.83166 0Z" fill="#6E772D" fill-rule="evenodd" transform="matrix(-1 0 0 1 1179 1075)"/><path d="M28.0568 0C27.4538 0 26.865 0.0287914 26.2907 0.0575828 17.2878 0.0575828 8.28495 1.85705 0.0143587 5.11047L19.4416 42.9856C24.1225 38.6669 28.8035 33.9739 33.4844 29.6408 36.7151 26.3873 40.3191 23.5082 42.4729 19.1751 44.2821 15.2163 45 10.1634 42.4729 6.19015 39.5437 1.62671 33.6711 0 28.0568 0Z" fill="#6E772D" fill-rule="evenodd" transform="matrix(-1 0 0 1 1178 1105)"/><path d="M198.185 0.0151006C179.778 2.28018 161.371 3.79024 142.964 4.93788 127.567 5.78351 112.185 6.20633 96.817 6.20633 64.5686 6.20633 32.3923 4.34896 0.374478 0.770129 0.374478 1.52516 0.014403 2.6577 0.014403 3.79024 31.6434 7.21807 63.4452 8.98483 95.4199 8.98483 109.434 8.98483 123.463 8.65262 137.549 7.958 158.476 7.20297 179.058 5.3154 200 2.6577 199.28 1.90267 198.905 0.770129 198.185 0.0151006Z" fill="#B2BF6D" fill-rule="evenodd" transform="matrix(-1 0 0 1 965 770)"/><path d="M231.266 0C205.296 3.45125 178.952 5.87125 152.623 7.24625 137.478 8.07125 122.334 8.47 107.19 8.47 72.2085 8.47 37.2847 6.36625 2.53363 2.76375 1.79945 2.76375 1.07967 2.42 0.359891 2.42 0.359891 3.45125 0 4.13875 0 5.17 36.5361 9.0475 73.2594 10.9862 110.199 10.9862 122.521 10.9862 134.844 10.78 147.21 10.34 175.353 8.965 203.857 6.215 232 2.42 232 2.07625 231.626 1.7325 231.626 1.38875 231.626 0.70125 231.626 0.3575 231.266 0Z" fill="#B2BF6D" fill-rule="evenodd" transform="matrix(-1 0 0 1 975 838)"/><path d="M246.986 0.0142854C217.379 4.2999 188.132 7.5284 158.524 8.95694 142.691 9.85692 126.871 10.2998 111.052 10.2998 76.7049 10.2998 42.4297 8.22838 8.31306 4.2999 5.41718 3.94277 2.89588 3.58563 0 3.2285 0 4.2999 0 5.01417 0 6.09986 37.7762 10.6426 75.9701 12.9854 114.251 12.9854 127.188 12.9854 140.155 12.7283 153.107 12.1854 184.515 10.7426 215.938 7.5284 246.986 2.87136 246.986 1.79996 246.986 0.728555 246.986 0.0142854Z" fill="#B2BF6D" fill-rule="evenodd" transform="matrix(-1 0 0 1 981 907)"/><path d="M34.5208 0.0143114C33.7885 0.0143114 33.0562 4.30774 31.577 10.4187 30.4785 13.281 29.3801 17.2309 27.5493 20.8088 26.1433 23.8858 23.0822 27.2919 19.6111 27.2919 19.4354 27.2919 19.2743 27.2919 19.0985 27.2632 15.4223 26.9055 12.127 23.6854 9.54925 20.451 7.35234 17.2309 5.52158 13.9966 4.78927 10.7765 2.94386 5.03762 3.31002 1.08767 2.57771 0.729882 1.84541 0.729882 0.0146461 4.66552 1.1131 11.8499 1.84541 15.0699 3.31002 19.0199 5.88773 22.9698 8.4508 26.5477 12.127 31.2132 19.0985 31.9288 19.45 31.9717 19.7869 31.986 20.1237 31.986 23.009 31.986 25.5721 30.6694 27.5493 29.0665 29.7462 26.9055 30.8447 24.7588 31.9431 22.612 33.7885 18.3043 34.5208 14.3544 34.887 11.1343 35.9855 4.30774 35.2531 0.372097 34.5208 0.0143114Z" fill="#6E772D" fill-rule="evenodd" transform="matrix(-1 0 0 1 960 523)"/><path d="M1.75132 0.014419C1.33158 0.014419 0 4.28245 0.347368 11.2324 0.709211 14.4911 1.44737 18.8168 2.89474 23.1569 3.61842 25.3342 4.70395 27.8575 6.875 30.0204 9.06053 32.1977 11.9553 34 15.5882 34 19.2211 33.6396 21.7539 31.1162 23.5632 29.2994 25.3868 27.1366 26.4724 24.9593 27.5579 22.7965 29.7289 18.8168 31.1908 14.4911 31.5526 11.2324 33 4.36896 32.2763 0.028838 31.5526 0.028838 30.8289 0.028838 30.4671 4.00849 28.2816 10.151 27.1961 13.3953 25.7487 17.0144 23.5632 20.6336 21.3921 24.2384 18.4829 28.939 15.2263 28.939 11.5934 28.939 8.69868 25.3342 7.25132 21.715 5.78947 17.7354 4.70395 13.7557 3.98026 10.5115 2.53289 4.36896 2.89474 0.028838 1.80921 0.028838 1.79474 0.014419 1.78026 0.014419 1.75132 0.014419Z" fill="#6E772D" fill-rule="evenodd" transform="matrix(-1 0 0 1 819 508)"/><path d="M344 0.0144271C344 0.0144271 342.547 0.375105 340.389 1.09646L330.649 4.35699C326.333 5.7997 320.924 7.24241 314.795 9.0458 309.026 10.8636 301.804 13.0277 294.237 15.1918 278.728 19.5343 260.341 23.5162 239.438 27.8588 218.519 31.4655 195.803 35.0868 171.288 37.9722 122.963 43.7575 78.6232 45.936 46.5265 47.7393 33.5498 48.4607 20.9182 49.1821 8.66079 49.9034L0.0143867 50.2785C0.0143867 50.6392 0.0143867 50.9999 0.0143867 50.9999L8.66079 50.9999C17.6812 50.9999 30.658 50.6392 46.5265 50.2785 78.6232 48.8214 122.963 47.018 171.648 41.2327 196.162 38.3329 219.239 34.7261 240.157 30.7442 260.701 26.4016 279.447 22.0735 294.956 17.3703 302.538 15.1918 309.386 12.667 315.514 10.8636 321.643 9.0458 326.693 6.88174 331.009 5.43902L340.749 1.45714C342.921 0.735783 344 0.375105 344 0.0144271Z" fill="#6E772D" fill-rule="evenodd" transform="matrix(-1 0 0 1 1224 615)"/><path d="M1.09589 0.0142677C1.08219 0.0142677 1.05479 0.0142677 1.0411 0.0285355 0 0.385229 3.43836 7.53337 6.19178 16.8359 9.27397 25.7675 7.56164 33.6433 8.24658 34 8.58904 34 9.61644 32.2023 10.3014 28.6354 10.9863 25.4109 10.6438 20.7596 9.27397 15.7516 6.27397 6.36341 1.9589 0.0142677 1.09589 0.0142677Z" fill="#6E772D" fill-rule="evenodd" transform="matrix(-1 0 0 1 887 597)"/><path d="M32.7468 0 0.0143563 28.0963 74.1361 134 121.986 112.745 32.7468 0Z" fill="#F9E9CD" fill-rule="evenodd" transform="matrix(-1 0 0 1 1121 790)"/><path d="M161.899 0 0.0143541 99.498 11.1675 106 195 27.7622 161.899 0Z" fill="#F9E9CD" fill-rule="evenodd" transform="matrix(-1 0 0 1 1012 807)"/><path d="M12.5019 0C9.9555 0 7.58172 1.96186 7.58172 4.9335L0.374051 226.191C0.0143866 228.008 0.733715 229.451 2.17237 230.533L102.418 314.056C103.137 314.417 103.857 314.777 104.936 315.138L142.801 322.726C142.974 322.913 143.247 323 143.52 323 143.794 323 144.053 322.913 144.24 322.726L317.67 298.866C320.187 298.505 322 296.342 322 293.803L322 25.9081C322 22.7633 319.756 20.7582 317.209 20.7582 316.533 20.7582 315.828 20.9024 315.152 21.2054L151.807 92.4237C151.303 92.6834 150.613 92.943 149.865 92.943 149.563 92.943 149.246 92.8998 148.93 92.7844L116.474 88.0817C115.395 88.0817 114.675 87.721 113.956 86.9998L15.8684 1.31271C14.8613 0.403912 13.6672 0 12.5019 0Z" fill="#FCBB3B" fill-rule="evenodd" transform="matrix(-1 0 0 1 1133 807)"/><path d="M10.4885 0 0.0144271 227.948 0.735783 228.67 40.872 236.985 42.6754 236.624 50.9854 5.42803 47.7393 6.87165 12.3063 1.80453 10.4885 0Z" fill="#F9CC3D" fill-rule="evenodd" transform="matrix(-1 0 0 1 1030 893)"/><path d="M30.0477 0.0143195C26.4177 0.0143195 22.8598 0.673016 19.5036 2.29112 5.79058 8.74921 2.53518 32.0757 1.09474 45.3498 0.374515 55.4021 0.0144044 65.8124 3.62992 75.1487 9.76621 91.6447 23.8393 105.291 41.528 108.513 43.1701 108.814 44.8842 108.986 46.5695 108.986 48.9607 108.986 51.323 108.642 53.4405 107.797 57.056 106.365 60.297 103.501 61.0316 99.5491 61.3917 96.6709 60.297 93.449 58.8565 90.9288 55.2554 82.6807 49.8394 75.1487 43.343 68.6763L43.343 68.6763C44.3945 69.7359 46.3391 70.2085 48.7734 70.2085 58.7413 70.2085 76.9773 62.4616 77.2654 56.1181 78 46.4381 49.4792 38.8917 41.8881 37.1018 49.1047 34.5816 58.8565 33.8656 64.9928 30.2857 68.6083 28.4815 71.4892 24.9016 71.4892 20.9494 71.4892 14.8493 64.9928 10.8971 59.2166 8.74921 50.7324 5.05478 40.102 0.0143195 30.0477 0.0143195Z" fill="#9FA85D" fill-rule="evenodd" transform="matrix(-1 0 0 1 1149 895)"/><path d="M223.459 0C223.329 0 223.184 0 223.055 0.0144132 196.298 0.0144132 171.719 17.7139 152.925 35.053 111.715 72.6138 57.8407 96.4533 2.53865 101.873 0 107.292 3.25985 113.792 7.94769 117.41 13.0106 120.668 19.1552 121.388 24.9393 122.109 15.1886 129.33 7.58709 139.448 3.62046 151.007 10.2267 157.047 18.91 160.333 27.4635 160.333 29.656 160.333 31.8485 160.117 33.9832 159.67L33.9832 159.67C25.6749 168.707 16.631 183.149 25.3143 192.186 28.8915 196.063 34.4448 196.986 39.9404 196.986 41.0943 196.986 42.2483 196.942 43.3878 196.885 120.384 195.804 256.677 174.126 264.264 76.9522 264.986 70.0915 264.625 62.8705 263.904 55.6351 261.74 33.3666 248.499 0 223.459 0Z" fill="#9FA85D" fill-rule="evenodd" transform="matrix(-1 0 0 1 947 839)"/><path d="M21.1715 0.014388C8.75962 37.1499 1.83341 79.7097 0.742094 119.003 0.0145509 139.924 1.46964 161.204 5.84945 181.39 6.94076 186.8 15.3366 225.389 20.8077 226.108 29.5528 227.187 37.9487 228.266 46.6937 229 49.6184 220.698 51.8011 212.411 53.2562 204.109 57.9997 179.232 57.636 153.995 55.8171 129.104 52.1648 84.3858 43.0415 38.9628 21.1715 0.014388Z" fill="#9FA85D" fill-rule="evenodd" transform="matrix(-1 0 0 1 1195 1075)"/></g></svg>