<svg width="702" height="678" xmlns="http://www.w3.org/2000/svg" xmlns:xlink="http://www.w3.org/1999/xlink" xml:space="preserve" overflow="hidden"><defs><clipPath id="clip0"><rect x="430" y="626" width="702" height="678"/></clipPath></defs><g clip-path="url(#clip0)" transform="translate(-430 -626)"><path d="M54.1288 0C51.8466 0 49.5645 0.06875 47.2824 0.1925 36.3227 0.88 25.0214 2.95625 16.1115 9.1575 6.86004 15.015 0.0136654 25.355 0.0136654 36.3825L122.278 54.9863C123.317 41.8963 124 27.4175 115.09 17.765 111.319 13.64 105.839 11.22 100.701 9.1575 86.0375 3.135 70.049 0 54.1288 0Z" fill="#EA8124" fill-rule="evenodd" transform="matrix(-1 0 0 1 726 761)"/><path d="M171.647 0C162.843 0 154.025 0.507966 145.275 1.5239 103.631 6.34271 63.6894 22.172 28.926 45.2227 13.0895 55.5467 0.013735 64.1547 2.76074 84.7891 4.83473 102.005 14.8064 118.164 29.2694 127.458L302.253 186.986C316.016 186.3 327.375 174.603 331.852 161.176 335.986 148.106 334.956 133.993 332.882 120.237 330.135 103.035 326.344 86.1757 318.433 70.6896 312.582 58.6494 303.97 47.9822 293.985 39.3742 285.73 32.4961 276.775 26.9908 267.133 22.172 237.767 7.22135 204.762 0 171.647 0Z" fill="#ED9A21" fill-rule="evenodd" transform="matrix(-1 0 0 1 859 781)"/><path d="M52.0744 0C45.5275 0 39.5421 9.20078 38.1039 16.9618 32.6116 49.6102 47.7189 89.1283 71.4003 112.151 61.1005 112.151 51.8416 105.967 43.2538 100.125 36.7343 95.6552 30.2147 90.8423 23.6814 86.3722 21.9693 85.001 19.9148 83.9726 17.8467 83.6298 17.6549 83.6023 17.4495 83.6023 17.2577 83.6023 14.3677 83.6023 11.5873 85.8648 10.2998 88.4427 8.93018 91.1851 8.58776 94.6268 8.93018 97.7258 9.61501 131.06 33.6388 154.768 63.1687 166.451 62.0867 166.492 61.0046 166.505 59.9226 166.505 42.5005 166.505 25.3524 161.555 7.88924 160.266 7.27289 160.143 6.58806 160.061 5.94432 160.061 4.8075 160.061 3.73917 160.294 3.09543 160.952 2.05449 161.98 1.71207 163.365 1.71207 164.737 0 179.162 11.3271 192.572 23.6814 200.127 42.2266 211.467 64.5383 215.252 85.4804 220.75 86.1653 221.093 87.1925 221.436 87.1925 222.121 81.0016 225.961 73.7835 227.017 66.4285 227.017 65.2232 227.017 64.0316 226.989 62.8263 226.934 57.5394 226.934 51.0335 224.905 45.1988 224.905 43.4456 224.905 41.7472 225.083 40.1584 225.563 37.0767 226.592 33.9812 229.348 33.9812 232.776 34.3237 234.846 35.3646 236.56 36.0494 237.931 44.9659 252.027 53.2113 258.897 66.9352 267.837 95.4379 286.733 132.501 296.016 165.455 301.857 187.246 305.971 209.407 307.986 231.568 307.986 246.415 307.986 261.262 307.081 276 305.285L199.094 120.748C139.719 106.652 87.5349 64.3781 61.7853 9.04995 60.4157 5.96474 59.046 2.52302 55.9506 1.15181 54.6631 0.356513 53.3482 0 52.0744 0Z" fill="#E2C2AA" fill-rule="evenodd" transform="matrix(-1 0 0 1 1098 764)"/><path d="M138.987 0C137.404 0 135.807 0.755863 134.743 2.58368 97.1242 62.8604 77.9804 131.397 77.9804 202.352 61.3337 199.232 44.3595 197.624 27.5081 197.624 20.1262 197.624 12.7716 197.94 5.47159 198.558 3.08374 198.558 0 199.946 0.695888 202.008 1.03701 203.039 2.06038 203.382 3.08374 203.726 9.5787 206.488 16.0737 208.55 22.9234 210.267 16.0737 210.267 8.89645 212.686 3.42486 216.479 2.06038 217.166 1.03701 218.197 1.03701 219.571 1.03701 221.647 3.42486 222.677 5.13047 223.021 9.49683 223.791 13.8632 224.175 18.0658 224.175 19.4712 224.175 20.863 224.134 22.2411 224.052L22.2411 224.052C16.7695 225.426 10.9432 227.845 6.5086 231.28 5.13047 232.311 4.10711 233.356 3.76598 234.386 3.08374 237.479 6.5086 239.897 9.5787 240.584 13.563 241.588 17.6292 242 21.7226 242 28.8862 242 36.1316 240.736 43.0905 239.21 54.3748 236.791 65.6728 233.699 76.9571 230.25 79.686 229.219 82.4287 228.188 84.4754 226.113 86.8632 223.708 87.5591 220.259 87.5591 216.823 88.2414 216.136 88.5825 215.091 88.2414 214.061 86.181 140.701 104.997 70.0892 143.64 7.75104 146 3.7106 142.507 0 138.987 0Z" fill="#EF8C20" fill-rule="evenodd" transform="matrix(-1 0 0 1 893 1051)"/><path d="M92.5796 0C90.5312 0 88.4552 1.08552 87.5203 3.62754 64.4373 71.1218 61.0003 142.065 76.8381 211.291 52.3802 212.321 28.2661 216.801 4.82558 224.028 2.76337 224.715 0 226.433 1.38856 228.508 1.73226 229.195 2.76337 229.538 3.79447 229.538 10.6823 230.912 17.5838 231.256 24.8153 231.256 17.9275 232.987 11.7271 236.766 6.90154 241.932 5.87043 242.963 5.16928 244.007 5.51298 245.381 5.87043 247.442 8.27635 247.786 10.3386 247.786 16.1952 247.442 21.7082 246.412 27.2212 245.038L27.2212 245.038C22.0657 247.442 17.2401 251.235 13.1019 255.714 12.4145 256.745 11.3834 258.119 11.3834 259.493 11.3834 262.598 15.5078 263.973 18.6149 263.973 19.0274 263.986 19.4398 264 19.8522 264 30.7545 264 41.038 259.672 51.0054 255.027 61.6877 250.204 72.0262 244.694 82.0074 238.497 84.7707 237.109 87.1766 235.392 88.5652 232.644 90.2837 229.882 90.2837 226.433 89.94 222.998 89.94 222.311 90.2837 221.266 89.94 220.236 71.3251 149.293 73.7448 76.2883 97.5152 6.7192 99 2.72066 95.8242 0 92.5796 0Z" fill="#EF8C20" fill-rule="evenodd" transform="matrix(-1 0 0 1 740 1040)"/><path d="M95.561 0C83.2314 0 70.8607 2.49719 59.5334 7.49156 28.2289 21.9396 13.7712 55.2949 0 85.2062 27.8857 94.8382 40.9567 125.436 50.2519 152.946 58.5037 178.055 67.7989 203.85 67.7989 230.331 67.1124 291.883 70.8881 357.907 96.7006 414.643 131.108 489.956 210.948 521.597 288.715 529.843 310.56 532.203 333.612 534 356.665 534 387.365 534 418.066 530.831 445.979 521.597 521.343 496.831 590.158 421.874 606.332 344.488 608.391 334.527 617 308.389 606.675 300.815 604.519 299.265 602.336 298.606 600.208 298.606 591.476 298.606 583.43 309.734 579.833 316.635 583.966 307.36 589.471 288.782 584.309 279.164 582.071 274.883 580.149 273.236 578.391 273.236 574.464 273.236 571.265 281.373 566.762 287.067 554.693 302.215 535.389 310.42 516.112 310.42 513.956 310.42 511.787 310.31 509.631 310.104 474.537 306.331 460.423 279.164 432.894 264.03 402.276 246.837 367.869 236.862 332.761 234.447 326.445 233.995 320.102 233.761 313.759 233.761 296.253 233.761 278.706 235.573 261.53 239.606 256.024 240.649 198.22 258.871 198.22 259.557 185.479 232.389 178.943 206.594 181.003 176.683 182.39 150.545 183.419 122.691 181.36 96.5533 178.6 64.2271 164.829 23.3117 133.525 8.52062 121.799 2.84021 108.701 0 95.561 0Z" fill="#EFD1B7" fill-rule="evenodd" transform="matrix(-1 0 0 1 1042 626)"/><path d="M106.054 0C86.4864 16.3764 60.4145 24.9117 35.3559 27.6343 31.0973 27.8657 26.8387 28.2741 22.5664 28.2741 20.6494 28.2741 18.7323 28.1924 16.829 27.9746 14.2409 27.7704 11.6529 26.4772 9.22923 26.4772 7.80514 26.4772 6.43581 26.9264 5.14865 28.3149 0.0136932 33.4334 5.14865 42.9896 8.58565 47.0871 23.0046 63.8038 45.3109 71.9852 67.6171 73.7004 72.355 73.9046 77.1476 73.9999 81.9676 73.9999 100.919 73.9999 120.404 72.5297 139 70.6239 139 55.9492 138.658 41.288 138.658 26.6133 138.315 25.5923 138.315 24.5713 137.973 23.5368 137.288 22.8561 136.248 22.5158 135.221 22.1755 123.212 18.4183 112.914 10.2369 106.054 0Z" fill="#ED9A21" fill-rule="evenodd" transform="matrix(-1 0 0 1 1134 684)"/><path d="M2.42289 0C2.06496 0 0.34416 4.9074 0 13.3241 0 17.5324 0.34416 22.4259 2.06496 28.0323 2.76705 30.493 3.79953 33.6388 5.86448 36.0995 8.08087 38.3365 10.8617 40.0002 14.2207 40.0002 14.5373 40.0002 14.8539 39.9862 15.1843 39.9583 18.9839 39.6088 21.7371 37.4976 23.8021 35.4004 26.225 33.2892 27.9458 31.1921 29.6666 28.7454 32.7778 24.1875 34.8427 19.6296 36.2332 15.7708 38.9864 7.71763 38.9864 2.46069 38.6423 2.46069 37.9539 2.46069 37.2656 7.3681 34.1544 14.7222 32.4336 18.581 30.3687 22.7894 27.2575 26.9837 25.8808 29.4444 24.1463 31.1921 21.7371 33.2892 19.6722 35.0509 17.5935 36.7985 14.8402 37.1481 12.4173 37.1481 10.0082 35.7499 8.28737 34.0023 6.5528 31.8911 5.52032 29.4444 4.48784 26.9837 3.11121 22.0763 2.42289 17.1829 2.42289 13.3241 1.7208 5.25693 2.76705 0 2.42289 0Z" fill="#BF9D86" fill-rule="evenodd" transform="matrix(-1 0 0 1 983 669)"/><path d="M120.959 0C120.421 0 116.228 6.01216 106.132 10.3834 95.7601 15.2234 80.2023 19.0293 62.9206 21.0977 55.652 21.8285 48.6455 22.1181 42.1217 22.1181 33.1291 22.1181 25.0882 21.5528 18.6748 20.753 8.27539 19.4981 1.59991 17.9399 0.510316 17.9399 0.399977 17.9399 0.3586 17.9537 0.3586 17.9813 0.0137923 18.3398 1.73783 19.0293 4.8411 19.7188 7.95817 20.753 12.4545 21.7872 18.33 22.8214 25.3779 24.1038 34.1498 25.0001 43.9699 25.0001 50.0523 25.0001 56.5347 24.6554 63.2654 23.8694 80.8919 22.1319 96.4497 17.6366 106.821 12.4518 112.007 9.69392 115.814 6.57752 117.883 4.16438 120.297 1.75125 121 0.0137894 121 0.0137894 120.986 0.0137894 120.972 0 120.959 0Z" fill="#EA8124" fill-rule="evenodd" transform="matrix(-1 0 0 1 1118 723)"/><path d="M21.5141 0C10.4307 0 1.00635 5.28764 0.679964 12.4246 0 20.3149 9.5467 27.1779 21.8133 27.8628 22.738 27.945 23.6492 27.9861 24.5467 27.9861 35.2765 27.9861 44.0209 22.4793 44.66 15.5068 45 7.95886 35.7933 1.09588 23.5268 0.0547942 22.8468 0.0136985 22.1804 0 21.5141 0Z" fill="#F3A79D" fill-rule="evenodd" transform="matrix(-1 0 0 1 976 718)"/><path d="M32.711 0C29.4385 0 26.3578 1.28806 23.6878 4.76857 18.8817 11.2911 15.445 22.2807 12.0219 30.1736 2.75216 51.4677 0.0136923 75.8587 2.06754 99.2082 4.80601 131.835 16.8279 164.118 38.7904 188.496 62.5193 214.668 94.7784 225.986 127.955 225.986 155.723 225.986 184.107 218.066 208.658 204.295 208.658 201.198 209 197.772 209 194.676L209 194.676C192.706 199.896 175.796 202.952 157.969 202.952 157.024 202.952 156.065 202.938 155.121 202.925 124.573 201.897 80.9902 198.115 60.0683 172.011 22.3185 124.969 12.0219 55.5922 48.7448 6.13885 43.4869 3.19275 37.8593 0 32.711 0Z" fill="#ED9A21" fill-rule="evenodd" transform="matrix(-1 0 0 1 876 846)"/><path d="M3.95095 0C11.4807 51.2049 10.407 103.424 0 154.273 0 154.958 0.357876 155.657 1.07363 156 1.80369 156 2.51945 156 2.87732 154.958 12.9122 104.452 14.0001 52.5758 6.81395 1.71368 5.74033 1.02821 5.02458 0.685474 3.95095 0Z" fill="#EA8124" fill-rule="evenodd" transform="matrix(-1 0 0 1 594 805)"/><path d="M2.44635 0C1.73746 0.343792 0.694985 0.687585 0 1.03138 25.7839 44.4592 46.3416 90.6511 51.2065 141.312L54.0003 142C49.1215 90.6511 28.2164 44.1154 2.44635 0Z" fill="#EA8124" fill-rule="evenodd" transform="matrix(-1 0 0 1 764 793)"/><path d="M1.69706 0.0140187C1.09951 0.0140187 0.286827 2.67758 0 5.66357 0 9.18227 0.298779 11.986 0.908287 11.986 1.80462 11.986 2.40218 9.53274 2.70096 6.01403 2.99974 2.85982 2.70096 0.0420562 1.80462 0.0420562 1.76877 0.0280375 1.73292 0.0140187 1.69706 0.0140187Z" fill="#FFEBDC" fill-rule="evenodd" transform="matrix(-1 0 0 1 954 864)"/><path d="M1.49987 0C0.904683 0 0 2.91614 0 6.14195 0.285689 9.4968 1.36893 11.9871 2.2379 11.9871 2.28551 11.9871 2.34503 11.9871 2.39265 11.9613 2.98783 11.9613 2.98783 9.05809 2.69024 6.14195 2.69024 2.91614 2.39265 0.322582 1.49987 0Z" fill="#FFEBDC" fill-rule="evenodd" transform="matrix(-1 0 0 1 921 870)"/><path d="M2.22989 0.013597C1.39568 0.013597 0.0160423 2.63782 0.770032 6.17305 1.87695 9.30037 4.33143 10.9864 5.35814 10.9864 5.43835 10.9864 5.53461 10.9728 5.59878 10.9456 5.99984 10.2658 4.79666 8.21261 4.3956 5.4932 3.57744 2.7602 3.17638 0.380717 2.37427 0.0407911 2.32614 0.0271941 2.27801 0.013597 2.22989 0.013597Z" fill="#FFEBDC" fill-rule="evenodd" transform="matrix(-1 0 0 1 941 913)"/><path d="M1.33485 0.0140516C0.674031 0.0140516 0.0132163 2.47307 0.0132163 6.00002 0.0132163 9.17567 0.674031 11.986 1.33485 11.986 2.32607 11.986 2.98688 9.17567 2.98688 6.00002 2.98688 2.47307 2.32607 0.0140516 1.33485 0.0140516Z" fill="#FFEBDC" fill-rule="evenodd" transform="matrix(-1 0 0 1 904 809)"/><path d="M1.00656 0C0.344351 0.342466 0.0132443 2.75342 0.344351 5.83562 1.00656 8.93151 1.99989 10.9863 2.6621 10.9863 3.65542 10.9863 3.98653 8.24658 3.32431 5.15068 2.6621 2.39726 1.66878 0 1.00656 0Z" fill="#FFEBDC" fill-rule="evenodd" transform="matrix(-1 0 0 1 887 875)"/><path d="M0.823132 0.0136798C0.281598 0.355676 0.0108307 2.74965 0.281598 5.4993 0.779809 8.04375 1.5163 9.98629 2.05783 9.98629 2.10115 9.98629 2.13364 9.98629 2.17697 9.95893 2.98927 9.95893 2.98927 7.55127 2.7185 4.81531 2.17697 2.06566 1.36467 0.0136798 0.823132 0.0136798Z" fill="#FFEBDC" fill-rule="evenodd" transform="matrix(-1 0 0 1 903 935)"/><path d="M2.05548 0.013473C1.26956 0.013473 0 2.26346 1.07308 5.10625 1.69275 7.63917 3.62732 8.99993 4.70041 8.99993 4.92711 8.99993 5.10848 8.93257 5.22939 8.82479 5.98508 8.15114 4.85154 6.45355 4.09585 4.4326 3.34016 2.07484 3.34016 0.0404189 2.20662 0.0404189 2.16128 0.0269459 2.10082 0.013473 2.05548 0.013473Z" fill="#FFEBDC" fill-rule="evenodd" transform="matrix(-1 0 0 1 949 959)"/><path d="M1.2202 0C1.14062 0 1.07431 0.0299062 0.994728 0.0598123 0 0.43364 0.331576 2.69156 1.3263 4.93452 2.22819 6.60926 3.38207 7.98495 4.09828 7.98495 4.17786 7.98495 4.25743 7.97 4.32375 7.94009 4.9869 7.55131 4.9869 5.68217 3.99217 3.43921 3.09029 1.42054 1.9364 0 1.2202 0Z" fill="#FFEBDC" fill-rule="evenodd" transform="matrix(-1 0 0 1 895 980)"/><path d="M1.92653 0C1.16203 0 0.0152899 1.99337 0.779786 4.30358 1.46783 6.67979 3.08856 7.9999 3.96009 7.9999 4.06712 7.9999 4.14357 7.9735 4.22002 7.9471 4.9998 7.61707 4.60227 5.62369 4.22002 3.97355 3.45552 1.99337 3.07327 0 1.92653 0Z" fill="#FFEBDC" fill-rule="evenodd" transform="matrix(-1 0 0 1 920 992)"/><path d="M1.10917 0C0.942796 0 0.80415 0.0539748 0.707097 0.148431 0.0138646 0.485773 1.05371 2.86066 2.78679 5.22206 4.3535 7.66442 6.1975 9.0003 7.05711 9.0003 7.15416 9.0003 7.23735 8.9868 7.30667 8.94632 7.9999 8.60898 6.96005 6.24758 5.22697 3.53535 3.74345 1.52479 2.02424 0 1.10917 0Z" fill="#FFEBDC" fill-rule="evenodd" transform="matrix(-1 0 0 1 937 1019)"/><path d="M1.41785 0.0133585C1.35567 0.0133585 1.30592 0.0267171 1.25617 0.0534341 0.310933 0.0534341 0 2.05721 1.25617 4.40831 1.9651 6.185 3.20883 6.99987 4.04213 6.99987 4.30331 6.99987 4.52718 6.90636 4.67643 6.74606 4.98737 6.07813 4.3655 4.74228 3.4327 3.0591 2.57453 1.53623 1.98997 0.0133585 1.41785 0.0133585Z" fill="#FFEBDC" fill-rule="evenodd" transform="matrix(-1 0 0 1 888 1017)"/><path d="M1.01168 0.0141181C0.871171 0.0141181 0.772813 0.0423543 0.716608 0.0988268 0.0140511 0.804732 0.36533 2.58361 1.77044 3.99543 2.86643 5.09664 3.97647 5.98608 4.73523 5.98608 4.946 5.98608 5.14272 5.91549 5.29728 5.76019 5.99984 5.05428 5.29728 3.64247 4.22939 1.86359 3.06315 0.691787 1.65803 0.0141181 1.01168 0.0141181Z" fill="#FFEBDC" fill-rule="evenodd" transform="matrix(-1 0 0 1 898 1040)"/><path d="M131.257 0C118.786 0 106.356 0.71154 94.0909 2.35355 45.8423 8.88056 0.0137499 11.6173 16.2112 69.5804 27.2386 107.99 49.6373 145.031 79.9559 171.426 92.3721 181.716 105.806 189.954 119.941 196.125 142.821 205.731 167.846 209.986 193.132 209.986 216.562 209.986 240.225 206.333 262.61 199.902 270.874 197.835 279.151 193.717 282.245 186.177 284.871 179.486 280.073 170.838 273.734 170.236L273.734 170.236C287.608 168.088 300.931 164.489 313.952 159.426 319.466 157.373 325.324 154.281 327.73 149.136 330.494 142.281 326.355 133.701 319.81 129.596 313.265 125.819 305.331 124.793 297.755 124.451 311.546 122.385 324.98 117.24 336.007 109.358 346.691 101.819 356 86.3837 347.035 77.12 342.552 72.3171 335.32 71.6329 328.775 69.9225 305.331 64.4354 289.134 43.8555 269.155 30.1447 245.368 14.0255 215.737 7.84062 187.137 4.07767 168.726 1.60096 149.957 0 131.257 0Z" fill="#E2C2AA" fill-rule="evenodd" transform="matrix(-1 0 0 1 865 848)"/><path d="M9.88977 0C8.85259 0 7.0996 0.730052 5.12749 1.26726 2.20584 2.30035 0 3.33344 0 4.02217 0 4.62825 0.99336 5.00016 2.46879 5.00016 3.53519 5.00016 4.84993 4.80732 6.22311 4.36653 9.15936 2.98908 10.9854 0.922895 10.6202 0.234167 10.4449 0.0688728 10.1965 0 9.88977 0Z" fill="#FFFFFF" fill-rule="evenodd" transform="matrix(-1 0 0 1 638 1086)"/><path d="M3.49514 0.014705C2.99761 0.014705 2.38814 0.308806 1.87817 0.705842 0.634349 1.44109 0.0124382 2.54397 0.323394 3.29393 0.460214 3.7939 0.796046 3.98507 1.23138 3.98507 1.75379 3.98507 2.43789 3.69096 3.12199 3.29393 4.36582 2.54397 5.00016 1.44109 4.36582 0.705842 4.22899 0.205871 3.89316 0.014705 3.49514 0.014705Z" fill="#FFFFFF" fill-rule="evenodd" transform="matrix(-1 0 0 1 586 1083)"/><path d="M3.63106 0C1.4611 0.319159 0.0144664 1.27664 0.0144664 1.91496 0.289327 2.64264 1.37431 3.0001 2.66181 3.0001 3.0958 3.0001 3.54426 2.9618 3.99272 2.8852 6.17714 2.56604 7.98544 1.91496 7.62378 0.957478 7.62378 0.319159 5.81548 0 3.63106 0Z" fill="#FFFFFF" fill-rule="evenodd" transform="matrix(-1 0 0 1 569 1111)"/><path d="M7.18331 0.0114946C6.4206 0.0114946 5.32508 0.172419 4.11861 0.344839 2.03851 0.632205 0.305083 0.91957 0.305083 1.78167 0 2.28743 1.51155 2.9886 3.71646 2.9886 4.07701 2.9886 4.43756 2.97711 4.82585 2.93113 7.59933 2.3564 8.98607 0.632205 8.2927 0.344839 8.15402 0.103452 7.75187 0.0114946 7.18331 0.0114946Z" fill="#FFFFFF" fill-rule="evenodd" transform="matrix(-1 0 0 1 624 1121)"/><path d="M2.82578 0.0145977C2.33647 0.0145977 1.73706 0.277356 1.23551 0.89046 0.30582 1.62034 0 2.71517 0.30582 3.44506 0.611641 3.81 1.00309 3.99977 1.41901 3.99977 1.84716 3.99977 2.29977 3.81 2.76462 3.44506 3.68208 2.35023 3.9879 1.2554 3.68208 0.51092 3.54752 0.18977 3.21723 0.0145977 2.82578 0.0145977Z" fill="#FFFFFF" fill-rule="evenodd" transform="matrix(-1 0 0 1 560 1036)"/><path d="M10.9236 0.0123452C9.87378 0.0123452 7.85384 0.580224 5.66115 1.49377 2.32559 2.72829 0 3.96281 0.332227 4.58007 0.332227 4.83932 0.850501 4.98746 1.68771 4.98746 2.87044 4.98746 4.70433 4.69117 6.65782 3.96281 9.99338 2.72829 11.9867 0.876509 11.6545 0.246904 11.5748 0.0864164 11.309 0.0123452 10.9236 0.0123452Z" fill="#FFFFFF" fill-rule="evenodd" transform="matrix(-1 0 0 1 540 1069)"/><path d="M3.45577 0C2.69122 0 1.54439 0.569819 1.16212 1.42455 0.397567 2.29067 0.015291 3.1454 0.397567 3.71522 0.519895 3.89756 0.795133 3.98873 1.14683 3.98873 1.91138 3.98873 3.0582 3.54428 3.83805 2.57558 5.00016 1.42455 4.22032 0 3.45577 0Z" fill="#FFFFFF" fill-rule="evenodd" transform="matrix(-1 0 0 1 487 1046)"/><path d="M7.82843 0C6.84987 0 5.3338 0.620028 3.81774 1.58305 1.73659 2.57246 0.0137824 3.90486 0.358343 4.56446 0.496168 4.82831 0.937206 4.9998 1.59876 4.9998 2.53597 4.9998 3.928 4.67 5.54054 3.90486 7.95247 2.57246 8.99993 0.923447 8.65537 0.263842 8.46242 0.0791526 8.17299 0 7.82843 0Z" fill="#FFFFFF" fill-rule="evenodd" transform="matrix(-1 0 0 1 518 1038)"/><path d="M9.65753 0C8.69863 0 6.84932 0.636756 4.82192 1.77557 2.06849 3.30623 0.0136986 5.14303 0.356164 5.76754 0.534247 5.92672 0.821918 6.0002 1.20548 6.0002 2.30137 6.0002 4.15068 5.36344 6.19178 4.22463 8.93151 2.69397 11 0.857171 10.3151 0.232661 10.2192 0.0734718 10 0 9.65753 0Z" fill="#FFFFFF" fill-rule="evenodd" transform="matrix(-1 0 0 1 519 987)"/><path d="M5.28287 0.0140183C4.5156 0.0140183 3.25777 0.686897 2.21378 1.85042 0.641492 3.26627 0 5.01855 0.641492 5.71947 0.716962 5.90171 0.880479 5.98582 1.10689 5.98582 1.76096 5.98582 2.93074 5.27088 4.10052 3.96718 5.35834 2.55133 5.99984 0.799044 5.68538 0.0981282 5.57217 0.0420549 5.43381 0.0140183 5.28287 0.0140183Z" fill="#FFFFFF" fill-rule="evenodd" transform="matrix(-1 0 0 1 483 1012)"/><path d="M4.82141 0C2.07417 0 0 0.663739 0 1.65935 0 2.33636 2.07417 3.0001 4.82141 3.0001 7.58239 3.0001 9.98623 2.33636 9.98623 1.65935 9.98623 0.663739 7.58239 0 4.82141 0Z" fill="#FFFFFF" fill-rule="evenodd" transform="matrix(-1 0 0 1 675 1084)"/><path d="M4.66614 0C2.00737 0 0 0.317807 0 0.966133 0 1.91955 1.67502 2.55517 4.33379 2.87298 4.91872 2.94925 5.47707 2.98739 5.99552 2.98739 7.53761 2.98739 8.66759 2.63144 8.66759 1.91955 8.99993 1.28394 7.00586 0.317807 4.66614 0Z" fill="#FFFFFF" fill-rule="evenodd" transform="matrix(-1 0 0 1 670 1118)"/><path d="M7.65281 0.0118336C6.74995 0.0118336 5.35983 0.331342 3.95539 0.91119 1.44744 1.79871 0.0143311 2.98208 0.372609 3.57376 0.530251 3.84593 1.0605 3.98794 1.77706 3.98794 2.66559 3.98794 3.85507 3.77493 5.04455 3.27792 7.55249 2.3904 8.9856 0.91119 8.62733 0.319508 8.49835 0.106503 8.1544 0.0118336 7.65281 0.0118336Z" fill="#FFFFFF" fill-rule="evenodd" transform="matrix(-1 0 0 1 607 1059)"/><path d="M59.582 0C59.582 11.3186 59.2385 24.7039 57.5075 39.102 55.4468 54.8824 51.3117 72.3735 43.742 89.1804 36.502 106.343 26.8716 121.083 16.5406 133.784 11.0317 140.299 5.5227 145.787 0.0137381 150.933 0.35719 151.618 1.04409 152.302 1.731 152.986 7.23996 147.84 13.0924 142.01 18.6013 135.495 29.2758 122.808 39.2634 107.712 46.833 90.5627 54.073 73.0579 58.5379 55.5667 60.2689 39.4441 61.9861 24.7039 61.9861 11.3186 61.6427 0Z" fill="#EFD1B7" fill-rule="evenodd" transform="matrix(-1 0 0 1 804 848)"/><path d="M0.422985 0.0136588C0.150092 0.0136588 0.0136447 0.0409765 0.0136447 0.0956119 0.0136447 0.778554 5.48516 1.80297 14.3679 5.21768 18.4749 6.9387 23.6053 9.32899 29.0768 12.0744 34.2072 15.1477 40.361 18.576 45.1503 23.3703 47.197 26.1021 48.9162 28.8475 48.5751 31.9207 48.5751 34.6662 47.197 37.3979 44.8092 39.1189 40.7021 42.8751 34.8895 44.2547 30.4413 44.5961 21.2175 45.6206 15.4049 45.2791 15.4049 45.962 15.4049 45.962 16.7693 46.3035 19.4983 46.645 22.2408 46.645 25.9931 46.9864 30.7824 46.9864 35.2306 46.3035 41.3843 45.6206 46.8559 41.1678 49.2573 39.1189 51.6451 35.6906 51.6451 31.9207 51.9863 27.8231 49.9396 24.3947 47.197 21.6493 44.8092 18.576 41.7255 16.5272 38.9965 14.8062 35.9128 12.7574 33.1839 11.3915 30.4413 9.67046 24.6287 6.9387 19.4983 4.87621 15.0501 3.16885 7.24533 0.860507 1.89661 0.0136588 0.422985 0.0136588Z" fill="#EFD1B7" fill-rule="evenodd" transform="matrix(-1 0 0 1 646 900)"/><path d="M107.905 0.0137279C107.905 0.356925 110.32 1.04332 114.473 3.1025 118.627 5.51861 124.505 8.96431 130.383 14.8124 133.143 17.558 135.226 21.6901 134.536 26.1654 133.833 30.6269 130.728 35.1022 126.23 37.8615 119.813 41.5406 111.272 42.076 102.248 42.076 98.6462 42.076 94.962 41.9936 91.3054 41.9936 65.709 40.9503 42.8861 36.8319 26.6313 32.3566 18.3245 30.2837 11.7564 28.2245 7.25807 26.8518 3.35306 25.6574 1.0211 24.7239 0.469153 24.7239 0.386361 24.7239 0.344965 24.7377 0.344965 24.7788 0 24.7788 2.42855 26.1654 6.9131 27.8813 11.4114 29.5973 17.6346 32.0134 25.9414 34.4158 42.1961 39.2343 65.364 44.0528 91.3054 44.7392 94.5894 44.9177 97.7907 45 100.937 45 104.097 45 107.215 44.9177 110.32 44.7392 116.543 44.396 122.766 43.3664 127.954 40.2639 132.798 36.8319 136.261 32.0134 137.296 26.5086 137.986 21.0037 134.881 16.1852 131.763 13.4259 125.54 7.2346 119.317 4.14582 114.818 2.07291 110.665 0.356925 107.905 0.0137279 107.905 0.0137279Z" fill="#EFD1B7" fill-rule="evenodd" transform="matrix(-1 0 0 1 737 946)"/><path d="M0.644437 0.0135648C0.219383 0.0135648 0 0.0542591 0 0.122083 0 0.461202 4.12714 1.81768 11.3394 4.20508 17.866 6.91803 27.4914 11.001 35.0601 19.1535 38.488 22.8973 40.9012 27.9977 39.5164 32.0807 38.1452 36.1637 34.3609 38.8766 31.2758 40.2331 24.7491 42.2814 19.9364 41.6032 19.9364 42.2814 19.9364 42.6205 20.9648 42.6205 23.0215 42.9596 23.7071 42.9596 24.516 43.0003 25.421 43.0003 27.2309 43.0003 29.4385 42.8511 31.9614 41.9423 35.7457 40.9249 40.2019 38.1984 42.2724 32.7589 43.9863 27.3195 41.244 21.2017 37.1169 17.1187 29.2054 8.27451 18.9081 4.5442 12.0249 2.1568 6.36211 0.556156 2.18012 0.0135648 0.644437 0.0135648Z" fill="#EFD1B7" fill-rule="evenodd" transform="matrix(-1 0 0 1 709 908)"/><path d="M17.2563 0.0133546C15.2749 0.0133546 14.0945 0.46741 14.0945 0.641019 14.0945 1.30875 17.9729 0.641019 23.2566 3.65915 25.7158 4.99461 29.2429 6.33006 31.7161 8.68046 34.5266 11.0175 34.8779 15.0372 31.3507 17.7081 28.5403 20.3924 24.3105 21.394 20.4461 22.0617 16.5677 22.7295 13.0406 22.7295 9.87878 22.7295 5.03073 22.4624 1.7987 21.9683 0.744773 21.9683 0.491831 21.9683 0.36536 21.995 0.36536 22.0617 0.0140523 22.3956 3.54119 24.0649 9.87878 24.746 11.4526 24.9063 13.1249 24.9864 14.9376 24.9864 16.7363 24.9864 18.6755 24.9063 20.7974 24.746 24.6618 24.0649 29.5942 23.0633 33.4726 19.7247 35.5805 18.042 36.9857 15.705 36.9857 13.0207 36.9857 10.3498 35.2292 8.33325 33.8239 6.99779 30.2968 3.99301 27.135 2.97807 24.3105 1.64261 21.486 0.373928 19.0409 0.0133546 17.2563 0.0133546Z" fill="#EFD1B7" fill-rule="evenodd" transform="matrix(-1 0 0 1 700 1006)"/></g></svg>