<svg id="图层_1" data-name="图层 1" xmlns="http://www.w3.org/2000/svg" xmlns:xlink="http://www.w3.org/1999/xlink" viewBox="0 0 941.69 1347.19"><defs><style>.cls-1{fill:none;}.cls-2{fill:#a4d735;}.cls-3{fill:#7c2c33;}.cls-4{fill:#96242e;}.cls-5{fill:#e6c9a5;}.cls-6{fill:#a02d37;}.cls-7{fill:#efc698;stroke:#6a3108;stroke-linejoin:round;stroke-width:4.53px;}.cls-8{fill:#fff;}.cls-9{fill:#6a3108;}.cls-10{fill:#adadad;}.cls-11{fill:#c93a46;}.cls-12{fill:#a6dbff;}.cls-13{fill:#789e6d;}.cls-14{fill:#ffffd2;}.cls-15{clip-path:url(#clip-path);}.cls-16{isolation:isolate;}.cls-16,.cls-17{font-size:33.31px;font-family:ArialMT, Arial;}</style><clipPath id="clip-path" transform="translate(-459.77 93.23)"><rect class="cls-1" x="506.9" y="131.36" width="153.69" height="119.25"/></clipPath></defs><g id="图层-2"><path class="cls-2" d="M962.2,2.76c131.45,0,238,106.87,238,238.7s-106.56,238.71-238,238.71-238-106.88-238-238.71S830.75,2.76,962.2,2.76Z" transform="translate(-459.77 93.23)"/><path class="cls-2" d="M1199.79,236.16v637a141.61,141.61,0,0,1-141.61,141.61H866.33A141.61,141.61,0,0,1,724.72,873.17v-637A141.61,141.61,0,0,1,866.33,94.56h191.85A141.61,141.61,0,0,1,1199.79,236.16Z" transform="translate(-459.77 93.23)"/><path class="cls-3" d="M596.62,401.72a14.94,14.94,0,0,0-.78-1.74l-3.14-5.52-.74-1.3L482.77,200.74a13.6,13.6,0,0,0-18.53-5.11l-.25.14c-.32.19-.54.41-.82.61-5.32,3.81-2.74,10.09-3,10.32L579.32,411.52a.6.6,0,0,0,.06.11l0-.13a.65.65,0,0,0,0,.13l6.85-3.95h0Z" transform="translate(-459.77 93.23)"/><path class="cls-4" d="M626.25,101.88,743.57,305l-18.83,11.16L582.13,400.72l-119-204.5Z" transform="translate(-459.77 93.23)"/><path class="cls-5" d="M742.8,305.48l-4,13.62L579.37,411.67l2.24-12.51Z" transform="translate(-459.77 93.23)"/><path class="cls-5" d="M586.67,404.48c.05-2.49-.5-4.58-1.47-5.57a2.23,2.23,0,0,0-.73-.52c-1-.37-2,.17-2.9,1.35a.83.83,0,0,1-.07.13,13.11,13.11,0,0,0-2.12,5.11,14.65,14.65,0,0,0,0,6.52.65.65,0,0,0,0,.13l6.85-3.95A17.37,17.37,0,0,0,586.67,404.48Z" transform="translate(-459.77 93.23)"/><path class="cls-2" d="M1096.71,973.71v183.92h-59.27V973.71Z" transform="translate(-459.77 93.23)"/><path class="cls-2" d="M857.2,973.69v183.93H797.92V973.69Z" transform="translate(-459.77 93.23)"/><path class="cls-6" d="M1161.66,497.44c0-2-.09-3.91-.14-5.86l-402-.11c-.06,1.95-.16,3.9-.16,5.86,0,110.75,90,200.55,201.1,200.58S1161.63,608.18,1161.66,497.44Z" transform="translate(-459.77 93.23)"/><path class="cls-7" d="M957.13,85.3A148.53,148.53,0,1,1,808.6,233.83,148.53,148.53,0,0,1,957.13,85.3Z" transform="translate(-459.77 93.23)"/><path class="cls-8" d="M1074.52,174.6a32.15,32.15,0,0,0-4-15.36,162.8,162.8,0,0,0-8.86-14.3,132.32,132.32,0,0,0-25-27,119.75,119.75,0,0,0-27.76-16.84A116.72,116.72,0,0,0,985,93.68a124.77,124.77,0,0,0-20.22-2.25c-49.4-1.46-97.56,25.84-124.65,66.65a143.15,143.15,0,0,0-16.4,33.23A136.94,136.94,0,0,0,816.51,236a143,143,0,0,0,3.85,31.85c.9,3.82,2,7.58,3.14,11.33a30.58,30.58,0,0,0,58.39-18.21c-.73-2.35-1.42-4.72-2-7.12a80.5,80.5,0,0,1-2.16-19.38,75.22,75.22,0,0,1,11.66-38.85,83.28,83.28,0,0,1,6.17-8.53,88.86,88.86,0,0,1,10.72-10.88,92.45,92.45,0,0,1,9.41-7.07c19.12-12.5,44.37-18.47,66.18-9.58a55.46,55.46,0,0,1,10.8,5.9,65.53,65.53,0,0,1,16,16.47,98.26,98.26,0,0,1,5.27,8.62,32.31,32.31,0,0,0,60.57-15.91Z" transform="translate(-459.77 93.23)"/><path class="cls-9" d="M944,141a68.61,68.61,0,1,1-68.61,68.61A68.61,68.61,0,0,1,944,141Z" transform="translate(-459.77 93.23)"/><path class="cls-2" d="M960.57-5c0-2.18-.08-4.35-.17-6.52q-.25-5.77-1.06-11.48c-2.65-19.13-9.79-38.23-24-51.81a65.85,65.85,0,0,0-10.22-8.09,63.92,63.92,0,0,0-14.67-6.86A74.43,74.43,0,0,0,888-93.22,28.63,28.63,0,0,0,859-64.89a28.64,28.64,0,0,0,28.33,29,14.7,14.7,0,0,1,5.27.74A6.82,6.82,0,0,1,896-31.62a30.22,30.22,0,0,1,2.51,7.11A68.25,68.25,0,0,1,900.1-12c.17,3.62.2,7.23,0,10.85-.11,2.89-.4,5.77-.72,8.64a30.26,30.26,0,0,0,60.19,6.3c.4-4.07.71-8.15.85-12.23C960.54-.63,960.58-2.8,960.57-5Z" transform="translate(-459.77 93.23)"/><path class="cls-2" d="M1114.5-43.06a39.28,39.28,0,0,0-3.81-17.22,34,34,0,0,0-2.82-4.72c-.57-.79-1.18-1.56-1.81-2.29s-1.34-1.5-2.07-2.2-1.59-1.44-2.43-2.1-1.69-1.26-2.56-1.82-1.77-1.07-2.69-1.54-1.91-.91-2.89-1.3-1.84-.66-2.78-.94a33.09,33.09,0,0,0-7.85-1.28,34.49,34.49,0,0,0-6.5.35c-10.84,1.56-20.25,8-28.43,14.91-1.44,1.22-2.86,2.49-4.25,3.78q-3.31,3-6.44,6.27c-2.92,3-5.76,6-8.44,9.25a57.48,57.48,0,0,0-4.83,6.49,70.35,70.35,0,0,0-4.6,8.93A101.69,101.69,0,0,0,1012.21-4c-4.47,27.27.2,54.85,5.59,81.62a30.26,30.26,0,1,0,59.27-12.22c-3.43-16.24-6.63-32.68-7-49.33a71.15,71.15,0,0,1,1.32-16.28,37.52,37.52,0,0,1,1.51-5.29c.21-.57.45-1.13.7-1.68a.87.87,0,0,1,.07-.17l.19-.26c.94-1.21,1.93-2.37,2.95-3.51s2.27-2.45,3.44-3.65a29.08,29.08,0,0,0,5.79.54A28.66,28.66,0,0,0,1114.5-43.06ZM1073.3-6.79c-.09.15-.2.32-.31.47s-.1.16-.1.11.22-.33.29-.43Zm-16-35.08,0-.27c0-.19,0-.38,0-.58,0,0,0,.07,0,.1C1057.21-42.36,1057.24-42.12,1057.25-41.87Z" transform="translate(-459.77 93.23)"/><path class="cls-8" d="M1125.45,493.92H795.6a165.57,165.57,0,0,0,9.13,53.82h311.59A165.3,165.3,0,0,0,1125.45,493.92Z" transform="translate(-459.77 93.23)"/><path class="cls-2" d="M1306.49,650.31a394.92,394.92,0,0,0-3-46.75q-1.29-10.62-3.14-21.17c-1.49-8.46-3.26-16.86-5.47-25.16a189.07,189.07,0,0,0-10.54-30.16,109,109,0,0,0-13-21.87,74,74,0,0,0-9.93-10.55,51.39,51.39,0,0,0-6.73-5,68,68,0,0,0-13.33-6.1c-5.15-1.8-10.41-3.24-15.68-4.62-5.52-1.44-11.08-2.75-16.54-4.4-1.75-.53-3.5-1.09-5.21-1.77q-.85-.35-1.68-.75l-.45-.23h0a18.71,18.71,0,0,0-26.8,26.09,32.38,32.38,0,0,0,3.79,3.52c4.48,3.51,9.79,5.77,15.14,7.59,8.26,2.81,16.81,4.65,25.24,6.88,3.87,1,7.75,2.12,11.52,3.51,1.18.44,2.36.91,3.49,1.46a8.92,8.92,0,0,1,1.52.82,42.89,42.89,0,0,1,10.42,11.9,112.31,112.31,0,0,1,11,24.11,255.85,255.85,0,0,1,10.56,47,344.48,344.48,0,0,1,3.31,45.72,17.76,17.76,0,0,0,35.52-.08Z" transform="translate(-459.77 93.23)"/><path class="cls-2" d="M1096.71,973.71v183.92h-59.27V973.71Z" transform="translate(-459.77 93.23)"/><path class="cls-2" d="M1306.49,650.31a394.92,394.92,0,0,0-3-46.75q-1.29-10.62-3.14-21.17c-1.49-8.46-3.26-16.86-5.47-25.16a189.07,189.07,0,0,0-10.54-30.16,109,109,0,0,0-13-21.87,74,74,0,0,0-9.93-10.55,51.39,51.39,0,0,0-6.73-5,68,68,0,0,0-13.33-6.1c-5.15-1.8-10.41-3.24-15.68-4.62-5.52-1.44-11.08-2.75-16.54-4.4-1.75-.53-3.5-1.09-5.21-1.77q-.85-.35-1.68-.75l-.45-.23h0a18.71,18.71,0,0,0-26.8,26.09,32.38,32.38,0,0,0,3.79,3.52c4.48,3.51,9.79,5.77,15.14,7.59,8.26,2.81,16.81,4.65,25.24,6.88,3.87,1,7.75,2.12,11.52,3.51,1.18.44,2.36.91,3.49,1.46a8.92,8.92,0,0,1,1.52.82,42.89,42.89,0,0,1,10.42,11.9,112.31,112.31,0,0,1,11,24.11,255.85,255.85,0,0,1,10.56,47,344.48,344.48,0,0,1,3.31,45.72,17.76,17.76,0,0,0,35.52-.08Z" transform="translate(-459.77 93.23)"/><path class="cls-10" d="M1299.77,660.11l26.78,174.21-15.43,9.44-26.78-174.21Z" transform="translate(-459.77 93.23)"/><path class="cls-2" d="M1291.05,625.74a23.78,23.78,0,1,1-23.78,23.78A23.76,23.76,0,0,1,1291.05,625.74Z" transform="translate(-459.77 93.23)"/><path class="cls-2" d="M1306.49,650.31a394.92,394.92,0,0,0-3-46.75q-1.29-10.62-3.14-21.17c-1.49-8.46-3.26-16.86-5.47-25.16a189.07,189.07,0,0,0-10.54-30.16,109,109,0,0,0-13-21.87,74,74,0,0,0-9.93-10.55,51.39,51.39,0,0,0-6.73-5,68,68,0,0,0-13.33-6.1c-5.15-1.8-10.41-3.24-15.68-4.62-5.52-1.44-11.08-2.75-16.54-4.4-1.75-.53-3.5-1.09-5.21-1.77q-.85-.35-1.68-.75l-.45-.23h0a18.71,18.71,0,0,0-26.8,26.09,32.38,32.38,0,0,0,3.79,3.52c4.48,3.51,9.79,5.77,15.14,7.59,8.26,2.81,16.81,4.65,25.24,6.88,3.87,1,7.75,2.12,11.52,3.51,1.18.44,2.36.91,3.49,1.46a8.92,8.92,0,0,1,1.52.82,42.89,42.89,0,0,1,10.42,11.9,112.31,112.31,0,0,1,11,24.11,255.85,255.85,0,0,1,10.56,47,344.48,344.48,0,0,1,3.31,45.72,17.76,17.76,0,0,0,35.52-.08Z" transform="translate(-459.77 93.23)"/><path class="cls-2" d="M1306.49,650.31a394.92,394.92,0,0,0-3-46.75q-1.29-10.62-3.14-21.17c-1.49-8.46-3.26-16.86-5.47-25.16a189.07,189.07,0,0,0-10.54-30.16,109,109,0,0,0-13-21.87,74,74,0,0,0-9.93-10.55,51.39,51.39,0,0,0-6.73-5,68,68,0,0,0-13.33-6.1c-5.15-1.8-10.41-3.24-15.68-4.62-5.52-1.44-11.08-2.75-16.54-4.4-1.75-.53-3.5-1.09-5.21-1.77q-.85-.35-1.68-.75l-.45-.23h0a18.71,18.71,0,0,0-26.8,26.09,32.38,32.38,0,0,0,3.79,3.52c4.48,3.51,9.79,5.77,15.14,7.59,8.26,2.81,16.81,4.65,25.24,6.88,3.87,1,7.75,2.12,11.52,3.51,1.18.44,2.36.91,3.49,1.46a8.92,8.92,0,0,1,1.52.82,42.89,42.89,0,0,1,10.42,11.9,112.31,112.31,0,0,1,11,24.11,255.85,255.85,0,0,1,10.56,47,344.48,344.48,0,0,1,3.31,45.72,17.76,17.76,0,0,0,35.52-.08Z" transform="translate(-459.77 93.23)"/><path class="cls-11" d="M1079.82,658.8c-13.66-29.61-39.68-49.65-69.59-49.65-19.58,0-37.49,8.61-51.38,22.84-15.31,15.69-25.7,38.23-27.93,63.75,2.58.38,5.19.72,7.81,1h0c1.18.12,2.36.21,3.54.32h0c1.82.16,3.65.31,5.49.42l.18,0c1.18.07,2.35.13,3.53.18,2.95.13,5.92.23,8.92.23q6.32,0,12.54-.43c.48,0,1-.07,1.44-.11,3.93-.28,7.84-.65,11.71-1.15h.17A200.48,200.48,0,0,0,1079.82,658.8Z" transform="translate(-459.77 93.23)"/><path class="cls-11" d="M986.35,696.21c-2-25.65-12.27-48.34-27.5-64.22-14-14.56-32.05-23.42-51.89-23.42-29.34,0-54.91,19.31-68.76,48a200.31,200.31,0,0,0,92.72,39.18,200.19,200.19,0,0,0,55.43.47Z" transform="translate(-459.77 93.23)"/><path class="cls-9" d="M751.14,1235.89,778.78,1217c14.55-10,38.16-10,52.72,0l27.63,18.94c14.56,10,12.22,18.08-5.21,18.08H756.35C738.91,1254,736.58,1245.87,751.14,1235.89Z" transform="translate(-459.77 93.23)"/><path class="cls-9" d="M868.91,1183.32v63.21a5.1,5.1,0,0,1-5.1,5.1H790.22a5.1,5.1,0,0,1-5.1-5.1v-63.21a5.1,5.1,0,0,1,5.1-5.1h73.59A5.1,5.1,0,0,1,868.91,1183.32Z" transform="translate(-459.77 93.23)"/><path class="cls-9" d="M878.25,1166.44v16.16a8.39,8.39,0,0,1-8.39,8.39H785.25a8.39,8.39,0,0,1-8.39-8.39v-16.16a8.39,8.39,0,0,1,8.39-8.39h84.61A8.39,8.39,0,0,1,878.25,1166.44Z" transform="translate(-459.77 93.23)"/><path class="cls-9" d="M992.29,1235.76l27.64-19c14.56-10,38.16-10,52.72,0l27.63,19c14.56,10,12.23,18.07-5.21,18.07H997.5C980.07,1253.83,977.73,1245.74,992.29,1235.76Z" transform="translate(-459.77 93.23)"/><path class="cls-9" d="M1110.07,1183.18v63.21a5.1,5.1,0,0,1-5.1,5.1h-73.6a5.1,5.1,0,0,1-5.1-5.1v-63.21a5.1,5.1,0,0,1,5.1-5.1H1105A5.1,5.1,0,0,1,1110.07,1183.18Z" transform="translate(-459.77 93.23)"/><path class="cls-9" d="M1119.4,1166.31v16.16a8.38,8.38,0,0,1-8.39,8.38h-84.6a8.38,8.38,0,0,1-8.39-8.38v-16.16a8.38,8.38,0,0,1,8.39-8.39H1111A8.38,8.38,0,0,1,1119.4,1166.31Z" transform="translate(-459.77 93.23)"/><path class="cls-10" d="M1327.75,833.1A73.71,73.71,0,1,1,1254,906.81,73.71,73.71,0,0,1,1327.75,833.1Z" transform="translate(-459.77 93.23)"/><path class="cls-12" d="M1353.08,845.26A67,67,0,1,1,1265.71,882,67,67,0,0,1,1353.08,845.26Z" transform="translate(-459.77 93.23)"/><path class="cls-2" d="M757.14,492.19a18.65,18.65,0,0,0-4.81-13.52,31.86,31.86,0,0,0-3.8-3.54c-4.46-3.51-9.77-5.79-15.11-7.61-8.26-2.83-16.81-4.7-25.23-6.94-3.87-1-7.76-2.12-11.52-3.51-1.18-.44-2.35-.92-3.48-1.47a9.78,9.78,0,0,1-1.52-.84,42.82,42.82,0,0,1-10.4-11.9,112.18,112.18,0,0,1-10.93-24.14,256.6,256.6,0,0,1-10.48-47.05A342.72,342.72,0,0,1,656.63,326a17.76,17.76,0,1,0-35.51,0A392.71,392.71,0,0,0,624,372.71q1.26,10.64,3.11,21.19c1.48,8.45,3.23,16.85,5.43,25.15A188.57,188.57,0,0,0,643,449.24,108.89,108.89,0,0,0,656,471.14a75,75,0,0,0,9.91,10.56,51.29,51.29,0,0,0,6.72,5,67.48,67.48,0,0,0,13.32,6.13c5.15,1.81,10.41,3.26,15.69,4.65,5.51,1.45,11.06,2.78,16.51,4.44,1.76.53,3.5,1.09,5.2,1.77.57.23,1.14.48,1.7.75.15.07.29.16.44.24l.06,0a18.69,18.69,0,0,0,31.63-12.54Z" transform="translate(-459.77 93.23)"/><path class="cls-2" d="M638.06,302.21A23.78,23.78,0,1,1,614.28,326,23.75,23.75,0,0,1,638.06,302.21Z" transform="translate(-459.77 93.23)"/><path class="cls-8" d="M1385.66,919.5a4.88,4.88,0,0,0-5.45-4.23l-.7.14a4.14,4.14,0,0,0-1.24.54,4.8,4.8,0,0,0-1,.77,5.4,5.4,0,0,0-.77,1A5.57,5.57,0,0,0,1376,919a5.21,5.21,0,0,0-.17,1.3,4.68,4.68,0,0,0,.19,1.29,4.93,4.93,0,0,0,1.31,2.24,4.69,4.69,0,0,0,1,.76,5.12,5.12,0,0,0,1.24.5,4.61,4.61,0,0,0,1.28.14,5.48,5.48,0,0,0,1.27-.18,5.3,5.3,0,0,0,1.22-.53,4.76,4.76,0,0,0,1-.78,4.62,4.62,0,0,0,.74-1,5.56,5.56,0,0,0,.49-1.22s0-.08,0-.11,0,0,0,0a4.61,4.61,0,0,0,.12-1.11c0-.07,0-.14,0-.21S1385.68,919.7,1385.66,919.5Zm-1.45,4a1,1,0,0,1-.08.11c-.11.11-.24.18-.35.28A5.39,5.39,0,0,0,1384.21,923.49Zm-.85-7c-.09,0-.59-.3-.93-.45a4.55,4.55,0,0,1,.72.3C1383.23,916.37,1383.29,916.44,1383.36,916.48Zm-5.15,7.35a5,5,0,0,1-.52-.39c0-.05-.08-.11-.13-.16A4.85,4.85,0,0,0,1378.21,923.83Z" transform="translate(-459.77 93.23)"/><path class="cls-8" d="M1385.46,898.26a72.84,72.84,0,0,0-5.39-16.92,85,85,0,0,0-7.92-13.05,4.87,4.87,0,1,0-7.92,5.67A79.05,79.05,0,0,1,1373,888.6a57.62,57.62,0,0,1,3.46,11.49,4.62,4.62,0,0,0,9-1.83Z" transform="translate(-459.77 93.23)"/><path class="cls-13" d="M704.33,341.41l-4.79,13.28-9.06-16Z" transform="translate(-459.77 93.23)"/><path class="cls-13" d="M695,346.58l4.87-13.24,9,16Z" transform="translate(-459.77 93.23)"/><path class="cls-13" d="M699.17,341.29l-8.64-2.57,4.59-2.69,4.72-2.62Z" transform="translate(-459.77 93.23)"/><path class="cls-14" d="M622.79,142.53l14.6,25.94L511.66,240.93l-14.67-25Z" transform="translate(-459.77 93.23)"/><g class="cls-15"><text class="cls-16" transform="translate(47.13 298.76) rotate(-30.2)"> </text><text class="cls-16" transform="translate(63.31 326.56) rotate(-30.2)">Science </text><text class="cls-17" transform="translate(173.72 262.3) rotate(-30.2)"> </text></g><path class="cls-10" d="M632.08,254.33l2.35,4.11-44.9,25.66-2.35-4.1Z" transform="translate(-459.77 93.23)"/><path class="cls-10" d="M639.47,267.05l2.35,4.11-44.91,25.67-2.34-4.11Z" transform="translate(-459.77 93.23)"/><path class="cls-10" d="M625.05,242.27l2.35,4.1L582.49,272l-2.34-4.11Z" transform="translate(-459.77 93.23)"/></g></svg>